<svg width="73" height="25" viewBox="0 0 73 25" fill="none" xmlns="http://www.w3.org/2000/svg">
<path d="M18.3043 20.2842H16.412H15.738H13.8457C13.7354 23.4218 10.4299 24.3226 10.4299 24.3226H15.738H16.412H21.7201C21.7201 24.3226 18.4146 23.4218 18.3043 20.2842Z" fill="#E1E1E1"/>
<path d="M13.8463 20.2842C13.8237 20.9129 13.6725 21.4495 13.4458 21.9089H18.704C18.4772 21.4495 18.3261 20.9129 18.3034 20.2842H16.4112H15.7371H13.8463Z" fill="#D3D3D3"/>
<path d="M27.7988 21.0475H4.35104C3.50315 21.0475 2.81396 20.3598 2.81396 19.5104V4.00193C2.81396 3.15404 3.50164 2.46484 4.35104 2.46484H27.7988C28.6467 2.46484 29.3359 3.15253 29.3359 4.00193V19.5104C29.3359 20.3583 28.6482 21.0475 27.7988 21.0475Z" fill="#1A3764"/>
<path d="M27.7988 2.4668H4.35104C3.50315 2.4668 2.81396 3.15448 2.81396 4.00388V18.0735H29.3359V4.00388C29.3359 3.15448 28.6482 2.4668 27.7988 2.4668Z" fill="black"/>
<path d="M27.8671 3.92969H4.28174V16.8204H27.8671V3.92969Z" fill="white"/>
<path opacity="0.5" d="M4.28164 7.17762C4.47812 6.83906 4.59298 6.44761 4.59298 6.02745C4.59298 7.29551 5.62073 8.32326 6.8888 8.32326C8.15686 8.32326 9.1846 7.29551 9.1846 6.02745C9.1846 7.29551 10.2124 8.32326 11.4804 8.32326C12.7485 8.32326 13.7762 7.29551 13.7762 6.02745C13.7762 7.29551 14.804 8.32326 16.072 8.32326C17.3401 8.32326 18.3678 7.29551 18.3678 6.02745C18.3678 7.29551 19.3956 8.32326 20.6637 8.32326C21.9317 8.32326 22.9595 7.29551 22.9595 6.02745C22.9595 7.29551 23.9872 8.32326 25.2553 8.32326C26.5233 8.32326 27.5511 7.29551 27.5511 6.02745C27.5511 6.44761 27.666 6.83906 27.8624 7.17762V0H4.2771V7.17762H4.28164Z" fill="white"/>
<path d="M16.9233 19.6179C16.9233 20.0864 16.544 20.4658 16.0754 20.4658C15.6069 20.4658 15.2275 20.0864 15.2275 19.6179C15.2275 19.1494 15.6069 18.77 16.0754 18.77C16.544 18.77 16.9233 19.1494 16.9233 19.6179Z" fill="#E9E8E9"/>
<path d="M17.0893 19.6181C17.0893 20.1789 16.6359 20.6323 16.0752 20.6323C15.5145 20.6323 15.061 20.1789 15.061 19.6181C15.061 19.0574 15.5145 18.604 16.0752 18.604C16.6359 18.604 17.0893 19.0574 17.0893 19.6181Z" fill="#E9E8E9"/>
<path d="M4.59312 3.41576H0L4.26213 0H7.63707L4.59312 3.41576Z" fill="#FFC40C"/>
<path d="M9.1864 3.41576H4.59326L7.63722 0H11.0122L9.1864 3.41576Z" fill="#1A3764"/>
<path d="M13.7792 3.41576H9.18604L11.0118 0H14.3868L13.7792 3.41576Z" fill="#FFC40C"/>
<path d="M18.3709 3.41576H13.7793L14.3869 0H17.7633L18.3709 3.41576Z" fill="#1A3764"/>
<path d="M22.9644 3.41576H18.3713L17.7637 0H21.1386L22.9644 3.41576Z" fill="#FFC40C"/>
<path d="M27.5576 3.41576H22.9644L21.1387 0H24.5136L27.5576 3.41576Z" fill="#1A3764"/>
<path d="M32.1503 3.41576H27.5571L24.5132 0H27.8881L32.1503 3.41576Z" fill="#FFC40C"/>
<path d="M4.59312 3.41553H0V5.02365C0 6.29171 1.02774 7.31946 2.2958 7.31946C3.56386 7.31946 4.59162 6.29171 4.59162 5.02365V3.41553H4.59312Z" fill="#FFC40C"/>
<path d="M9.1864 3.41553H4.59326V5.02365C4.59326 6.29171 5.62102 7.31946 6.88908 7.31946C8.15714 7.31946 9.18488 6.29171 9.18488 5.02365V3.41553H9.1864Z" fill="#1A3764"/>
<path d="M13.7792 3.41553H9.18604V5.02365C9.18604 6.29171 10.2138 7.31946 11.4819 7.31946C12.7499 7.31946 13.7777 6.29171 13.7777 5.02365V3.41553H13.7792Z" fill="#FFC40C"/>
<path d="M18.371 3.41553H13.7778V5.02365C13.7778 6.29171 14.8056 7.31946 16.0737 7.31946C17.3417 7.31946 18.3695 6.29171 18.3695 5.02365V3.41553H18.371Z" fill="#1A3764"/>
<path d="M22.9642 3.41553H18.3711V5.02365C18.3711 6.29171 19.3989 7.31946 20.6669 7.31946C21.935 7.31946 22.9627 6.29171 22.9627 5.02365V3.41553H22.9642Z" fill="#FFC40C"/>
<path d="M27.5575 3.41553H22.9644V5.02365C22.9644 6.29171 23.9921 7.31946 25.2602 7.31946C26.5282 7.31946 27.556 6.29171 27.556 5.02365V3.41553H27.5575Z" fill="#1A3764"/>
<path d="M32.1503 3.41553H27.5571V5.02365C27.5571 6.29171 28.5849 7.31946 29.8529 7.31946C31.121 7.31946 32.1487 6.29171 32.1487 5.02365V3.41553H32.1503Z" fill="#FFC40C"/>
<path d="M21.7201 24.3228H10.4299V24.9999H21.7201V24.3228Z" fill="#C6C5C5"/>
<path d="M20.5267 12.9695H10.9459C10.0421 12.9695 9.30908 12.2365 9.30908 11.3326C9.30908 10.4288 10.0421 9.6958 10.9459 9.6958H20.5267C21.4305 9.6958 22.1635 10.4288 22.1635 11.3326C22.1635 12.2365 21.4305 12.9695 20.5267 12.9695Z" fill="#FFC40C"/>
<path d="M15.3203 13.1876L15.2795 14.8979L16.5699 14.9287L16.6106 13.2183L15.3203 13.1876Z" fill="white"/>
<path d="M15.2239 13.4351C15.2239 13.4351 15.2617 11.8542 15.2677 11.5731C15.2768 11.1786 15.7226 11.2315 15.7136 11.5836C15.706 11.9056 15.6758 13.1902 15.6758 13.1902" fill="white"/>
<path d="M15.2239 13.4351C15.2239 13.4351 15.2617 11.8542 15.2677 11.5731C15.2768 11.1786 15.7226 11.2315 15.7136 11.5836C15.706 11.9056 15.6758 13.1902 15.6758 13.1902" stroke="black" stroke-width="0.15114" stroke-miterlimit="10" stroke-linecap="round" stroke-linejoin="round"/>
<path d="M15.676 13.1915L15.6926 12.5174C15.7017 12.1229 16.1476 12.1758 16.1385 12.528L16.1219 13.2021" fill="white"/>
<path d="M15.676 13.1915L15.6926 12.5174C15.7017 12.1229 16.1476 12.1758 16.1385 12.528L16.1219 13.2021" stroke="black" stroke-width="0.15114" stroke-miterlimit="10" stroke-linecap="round" stroke-linejoin="round"/>
<path d="M15.4128 14.8767C15.1437 14.8601 14.9865 14.4928 14.8898 13.982C14.8279 13.6555 14.4953 13.2036 14.4953 13.2036C14.3306 12.927 14.6873 12.658 14.8928 12.8786L15.31 13.3699" fill="white"/>
<path d="M15.4128 14.8767C15.1437 14.8601 14.9865 14.4928 14.8898 13.982C14.8279 13.6555 14.4953 13.2036 14.4953 13.2036C14.3306 12.927 14.6873 12.658 14.8928 12.8786L15.31 13.3699" stroke="black" stroke-width="0.15114" stroke-miterlimit="10" stroke-linecap="round" stroke-linejoin="round"/>
<path d="M16.1218 13.2023L16.1339 12.6688C16.143 12.2743 16.5889 12.3272 16.5798 12.6793L16.5677 13.2129" fill="white"/>
<path d="M16.1218 13.2023L16.1339 12.6688C16.143 12.2743 16.5889 12.3272 16.5798 12.6793L16.5677 13.2129" stroke="black" stroke-width="0.15114" stroke-miterlimit="10" stroke-linecap="round" stroke-linejoin="round"/>
<path d="M16.5677 13.2126L16.5767 12.8182C16.5858 12.4237 17.0317 12.4766 17.0226 12.8287C17.0226 12.8287 16.9969 13.8973 16.9848 14.4097C16.9727 14.9235 16.5269 14.9024 16.5269 14.9024" fill="white"/>
<path d="M16.5677 13.2126L16.5767 12.8182C16.5858 12.4237 17.0317 12.4766 17.0226 12.8287C17.0226 12.8287 16.9969 13.8973 16.9848 14.4097C16.9727 14.9235 16.5269 14.9024 16.5269 14.9024" stroke="black" stroke-width="0.15114" stroke-miterlimit="10" stroke-linecap="round" stroke-linejoin="round"/>
<path d="M16.5267 14.9026C16.5267 14.9026 16.5237 15.0024 16.5207 15.1278C16.5177 15.2533 16.4738 15.3606 16.3695 15.3576C16.2653 15.3546 15.6758 15.3409 15.5504 15.3379C15.4264 15.3349 15.4022 15.1928 15.4053 15.1097C15.4068 15.0266 15.4113 14.877 15.4113 14.877" fill="#FFFBFA"/>
<path d="M16.5267 14.9026C16.5267 14.9026 16.5237 15.0024 16.5207 15.1278C16.5177 15.2533 16.4738 15.3606 16.3695 15.3576C16.2653 15.3546 15.6758 15.3409 15.5504 15.3379C15.4264 15.3349 15.4022 15.1928 15.4053 15.1097C15.4068 15.0266 15.4113 14.877 15.4113 14.877" stroke="black" stroke-width="0.15114" stroke-miterlimit="10" stroke-linecap="round" stroke-linejoin="round"/>
<path d="M16.5068 14.9055C16.3738 14.9025 15.6211 14.8844 15.4624 14.8813L16.5068 14.9055Z" fill="#FFFBFA"/>
<path d="M16.5068 14.9055C16.3738 14.9025 15.6211 14.8844 15.4624 14.8813" stroke="black" stroke-width="0.15114" stroke-miterlimit="10" stroke-linecap="round" stroke-linejoin="round"/>
<path d="M40.188 17.9739V7.0344H42.249V17.9739H40.188ZM41.0071 13.5724V11.5869H44.8122C45.133 11.5869 45.3897 11.4698 45.5823 11.232C45.7748 10.998 45.8729 10.6847 45.8804 10.2996C45.8804 9.91461 45.7823 9.6013 45.5898 9.36726C45.3973 9.13321 45.1368 9.01242 44.8122 9.01242H41.0071V7.02686H44.9783C45.586 7.02686 46.1145 7.16274 46.5675 7.43453C47.0205 7.70632 47.3715 8.08758 47.6244 8.57831C47.8773 9.06904 48.0019 9.64282 48.0019 10.2996C48.0019 10.9565 47.8736 11.5302 47.6206 12.021C47.3677 12.5117 47.0167 12.893 46.5637 13.1648C46.1107 13.4365 45.5822 13.5724 44.9783 13.5724H41.0071ZM45.9597 17.9739L43.306 13.2365L45.5105 12.8892L48.4587 17.9739H45.9597Z" fill="#1A3764"/>
<path d="M50.7236 17.9662L54.9062 7.03418H56.2161L60.3986 17.9662H58.179L55.563 10.4995L52.947 17.9662H50.7236ZM52.7319 16.2146V14.2291H58.4847V16.2146H52.7319Z" fill="#FFC40C"/>
<path d="M62.6636 17.9662L66.8461 7.03418H68.156L72.3385 17.9662H70.1189L67.503 10.4995L64.887 17.9662H62.6636ZM64.6718 16.2146V14.2291H70.4247V16.2146H64.6718Z" fill="#FFC40C"/>
</svg>
