<svg width="62" height="48" viewBox="0 0 62 48" fill="none" xmlns="http://www.w3.org/2000/svg">
<path d="M35.1051 38.8994H31.4761H30.1835H26.5544C26.3429 44.9167 20.0035 46.6443 20.0035 46.6443H30.1835H31.4761H41.656C41.656 46.6443 35.3167 44.9167 35.1051 38.8994Z" fill="#E1E1E1"/>
<path d="M26.5548 38.8994C26.5114 40.1051 26.2214 41.1342 25.7867 42.0153H35.8709C35.4359 41.1342 35.1462 40.1051 35.1026 38.8994H31.4737H30.181H26.5548Z" fill="#D3D3D3"/>
<path d="M53.313 40.3665H8.34462C6.71852 40.3665 5.39679 39.0476 5.39679 37.4186V7.67636C5.39679 6.05027 6.71563 4.72852 8.34462 4.72852H53.313C54.9391 4.72852 56.2608 6.04737 56.2608 7.67636V37.4186C56.2608 39.0447 54.942 40.3665 53.313 40.3665Z" fill="#1A3764"/>
<path d="M53.313 4.73389H8.34462C6.71852 4.73389 5.39679 6.05273 5.39679 7.68171V34.6645H56.2608V7.68171C56.2608 6.05273 54.942 4.73389 53.313 4.73389Z" fill="black"/>
<path d="M53.4446 7.54004H8.2124V32.2619H53.4446V7.54004Z" fill="white"/>
<path opacity="0.5" d="M8.21195 13.7653C8.58876 13.116 8.80904 12.3653 8.80904 11.5595C8.80904 13.9914 10.7801 15.9624 13.212 15.9624C15.6439 15.9624 17.6149 13.9914 17.6149 11.5595C17.6149 13.9914 19.586 15.9624 22.0178 15.9624C24.4498 15.9624 26.4207 13.9914 26.4207 11.5595C26.4207 13.9914 28.3918 15.9624 30.8236 15.9624C33.2556 15.9624 35.2265 13.9914 35.2265 11.5595C35.2265 13.9914 37.1976 15.9624 39.6296 15.9624C42.0614 15.9624 44.0325 13.9914 44.0325 11.5595C44.0325 13.9914 46.0034 15.9624 48.4354 15.9624C50.8672 15.9624 52.8383 13.9914 52.8383 11.5595C52.8383 12.3653 53.0586 13.116 53.4353 13.7653V0H8.20325V13.7653H8.21195Z" fill="white"/>
<path d="M32.4557 37.6251C32.4557 38.5236 31.7283 39.2512 30.8296 39.2512C29.9311 39.2512 29.2035 38.5236 29.2035 37.6251C29.2035 36.7266 29.9311 35.999 30.8296 35.999C31.7283 35.999 32.4557 36.7266 32.4557 37.6251Z" fill="#E9E8E9"/>
<path d="M32.7746 37.6255C32.7746 38.701 31.9051 39.5706 30.8298 39.5706C29.7545 39.5706 28.8848 38.701 28.8848 37.6255C28.8848 36.5502 29.7545 35.6807 30.8298 35.6807C31.9051 35.6807 32.7746 36.5502 32.7746 37.6255Z" fill="#E9E8E9"/>
<path d="M8.80871 6.55077H0L8.17394 0H14.6464L8.80871 6.55077Z" fill="#FFC40C"/>
<path d="M17.6187 6.55077H8.80994L14.6477 0H21.1202L17.6187 6.55077Z" fill="#1A3764"/>
<path d="M26.4259 6.55077H17.6171L21.1186 0H27.5912L26.4259 6.55077Z" fill="#FFC40C"/>
<path d="M35.2331 6.55077H26.4273L27.5926 0H34.0679L35.2331 6.55077Z" fill="#1A3764"/>
<path d="M44.042 6.55077H35.2333L34.0681 0H40.5405L44.042 6.55077Z" fill="#FFC40C"/>
<path d="M52.8507 6.55077H44.0419L40.5405 0H47.0129L52.8507 6.55077Z" fill="#1A3764"/>
<path d="M61.6582 6.55077H52.8493L47.0117 0H53.4841L61.6582 6.55077Z" fill="#FFC40C"/>
<path d="M8.80947 6.55273H0.000732422V9.6368C0.000732422 12.0687 1.97174 14.0397 4.40364 14.0397C6.83554 14.0397 8.80659 12.0687 8.80659 9.6368V6.55273H8.80947Z" fill="#FFC40C"/>
<path d="M17.6187 6.55273H8.80994V9.6368C8.80994 12.0687 10.781 14.0397 13.2129 14.0397C15.6448 14.0397 17.6158 12.0687 17.6158 9.6368V6.55273H17.6187Z" fill="#1A3764"/>
<path d="M26.4259 6.55273H17.6171V9.6368C17.6171 12.0687 19.5882 14.0397 22.0201 14.0397C24.4519 14.0397 26.4231 12.0687 26.4231 9.6368V6.55273H26.4259Z" fill="#FFC40C"/>
<path d="M35.2326 6.55273H26.4238V9.6368C26.4238 12.0687 28.3949 14.0397 30.8269 14.0397C33.2586 14.0397 35.2298 12.0687 35.2298 9.6368V6.55273H35.2326Z" fill="#1A3764"/>
<path d="M44.0413 6.55273H35.2327V9.6368C35.2327 12.0687 37.2038 14.0397 39.6356 14.0397C42.0675 14.0397 44.0385 12.0687 44.0385 9.6368V6.55273H44.0413Z" fill="#FFC40C"/>
<path d="M52.8505 6.55273H44.0418V9.6368C44.0418 12.0687 46.0127 14.0397 48.4447 14.0397C50.8765 14.0397 52.8476 12.0687 52.8476 9.6368V6.55273H52.8505Z" fill="#1A3764"/>
<path d="M61.6588 6.55273H52.8499V9.6368C52.8499 12.0687 54.821 14.0397 57.2528 14.0397C59.6848 14.0397 61.6557 12.0687 61.6557 9.6368V6.55273H61.6588Z" fill="#FFC40C"/>
<path d="M41.656 46.6479H20.0035V47.9465H41.656V46.6479Z" fill="#C6C5C5"/>
<path d="M39.3666 24.8726H20.9924C19.2591 24.8726 17.8533 23.4668 17.8533 21.7333C17.8533 20 19.2591 18.5942 20.9924 18.5942H39.3666C41.0999 18.5942 42.5057 20 42.5057 21.7333C42.5057 23.4668 41.0999 24.8726 39.3666 24.8726Z" fill="#FFC40C"/>
<path d="M29.3818 25.2915L29.3035 28.5715L31.7783 28.6306L31.8563 25.3504L29.3818 25.2915Z" fill="white"/>
<path d="M29.1972 25.7668C29.1972 25.7668 29.2697 22.7349 29.2812 22.1958C29.2987 21.4392 30.1536 21.5407 30.1364 22.2159C30.1218 22.8335 30.0639 25.2971 30.0639 25.2971" fill="white"/>
<path d="M29.1972 25.7668C29.1972 25.7668 29.2697 22.7349 29.2812 22.1958C29.2987 21.4392 30.1536 21.5407 30.1364 22.2159C30.1218 22.8335 30.0639 25.2971 30.0639 25.2971" stroke="black" stroke-width="0.289857" stroke-miterlimit="10" stroke-linecap="round" stroke-linejoin="round"/>
<path d="M30.0641 25.3021L30.096 24.0093C30.1134 23.2527 30.9686 23.3541 30.9511 24.0296L30.9193 25.3224" fill="white"/>
<path d="M30.0641 25.3021L30.096 24.0093C30.1134 23.2527 30.9686 23.3541 30.9511 24.0296L30.9193 25.3224" stroke="black" stroke-width="0.289857" stroke-miterlimit="10" stroke-linecap="round" stroke-linejoin="round"/>
<path d="M29.5591 28.5298C29.043 28.498 28.7416 27.7935 28.5561 26.8139C28.4374 26.1878 27.7995 25.3211 27.7995 25.3211C27.4837 24.7906 28.1677 24.2748 28.5619 24.6978L29.362 25.64" fill="white"/>
<path d="M29.5591 28.5298C29.043 28.498 28.7416 27.7935 28.5561 26.8139C28.4374 26.1878 27.7995 25.3211 27.7995 25.3211C27.4837 24.7906 28.1677 24.2748 28.5619 24.6978L29.362 25.64" stroke="black" stroke-width="0.289857" stroke-miterlimit="10" stroke-linecap="round" stroke-linejoin="round"/>
<path d="M30.9189 25.321L30.9422 24.2979C30.9596 23.5413 31.8148 23.6427 31.7973 24.318L31.7741 25.3413" fill="white"/>
<path d="M30.9189 25.321L30.9422 24.2979C30.9596 23.5413 31.8148 23.6427 31.7973 24.318L31.7741 25.3413" stroke="black" stroke-width="0.289857" stroke-miterlimit="10" stroke-linecap="round" stroke-linejoin="round"/>
<path d="M31.7738 25.3423L31.7911 24.5859C31.8085 23.8294 32.6637 23.9308 32.6462 24.6061C32.6462 24.6061 32.5969 26.6554 32.5737 27.6381C32.5505 28.6235 31.6956 28.583 31.6956 28.583" fill="white"/>
<path d="M31.7738 25.3423L31.7911 24.5859C31.8085 23.8294 32.6637 23.9308 32.6462 24.6061C32.6462 24.6061 32.5969 26.6554 32.5737 27.6381C32.5505 28.6235 31.6956 28.583 31.6956 28.583" stroke="black" stroke-width="0.289857" stroke-miterlimit="10" stroke-linecap="round" stroke-linejoin="round"/>
<path d="M31.6952 28.5818C31.6952 28.5818 31.6895 28.7732 31.6837 29.0137C31.678 29.2544 31.5938 29.4602 31.3938 29.4544C31.1939 29.4487 30.0634 29.4224 29.8229 29.4166C29.5851 29.4109 29.5387 29.1384 29.5446 28.979C29.5475 28.8196 29.5561 28.5327 29.5561 28.5327" fill="#FFFBFA"/>
<path d="M31.6952 28.5818C31.6952 28.5818 31.6895 28.7732 31.6837 29.0137C31.678 29.2544 31.5938 29.4602 31.3938 29.4544C31.1939 29.4487 30.0634 29.4224 29.8229 29.4166C29.5851 29.4109 29.5387 29.1384 29.5446 28.979C29.5475 28.8196 29.5561 28.5327 29.5561 28.5327" stroke="black" stroke-width="0.289857" stroke-miterlimit="10" stroke-linecap="round" stroke-linejoin="round"/>
<path d="M31.6573 28.5894C31.4022 28.5836 29.9587 28.5489 29.6543 28.543L31.6573 28.5894Z" fill="#FFFBFA"/>
<path d="M31.6573 28.5894C31.4022 28.5836 29.9587 28.5489 29.6543 28.543" stroke="black" stroke-width="0.289857" stroke-miterlimit="10" stroke-linecap="round" stroke-linejoin="round"/>
</svg>
