<svg width="500" height="500" viewBox="0 0 500 500" fill="none" xmlns="http://www.w3.org/2000/svg">
<path d="M271.16 378.75H167.01V459.08H271.16V378.75Z" fill="#EBEBEB"/>
<path d="M245.07 458.52C244.93 458.52 244.81 440.61 244.81 418.52C244.81 396.43 244.93 378.52 245.07 378.52C245.21 378.52 245.33 396.43 245.33 418.52C245.33 440.61 245.21 458.52 245.07 458.52Z" fill="#E0E0E0"/>
<path d="M262.33 440.8H254.35V449.83H262.33V440.8Z" fill="#FAFAFA"/>
<path d="M210.62 378.96H198.79V396.1H210.62V378.96Z" fill="#E0E0E0"/>
<path d="M210.62 441.7H198.79V458.84H210.62V441.7Z" fill="#E0E0E0"/>
<path d="M460.149 358.61H328.819V459.9H460.149V358.61Z" fill="#EBEBEB"/>
<path d="M427.239 459.18C427.099 459.18 426.979 436.61 426.979 408.76C426.979 380.91 427.099 358.34 427.239 358.34C427.379 358.34 427.499 380.91 427.499 408.76C427.499 436.61 427.389 459.18 427.239 459.18Z" fill="#E0E0E0"/>
<path d="M449.009 436.84H438.939V448.22H449.009V436.84Z" fill="#FAFAFA"/>
<path d="M383.8 358.87H368.88V380.48H383.8V358.87Z" fill="#E0E0E0"/>
<path d="M383.8 437.98H368.88V459.59H383.8V437.98Z" fill="#E0E0E0"/>
<path d="M81.4595 361.59C86.7795 358.85 93.0395 358.49 98.9395 359.47C102.109 359.99 105.409 360.94 107.569 363.32C109.729 365.7 110.13 369.89 107.66 371.94C106.18 373.16 104.129 373.34 102.209 373.32C97.5895 373.26 92.4695 372.45 88.7795 375.23C86.6695 376.82 85.2695 379.45 82.7795 380.23C80.2895 381.01 77.5395 379.54 76.2395 377.32C75.0368 375.005 74.7718 372.316 75.4995 369.81C75.7939 368.074 76.4849 366.429 77.5185 365.004C78.5522 363.578 79.9009 362.41 81.4595 361.59Z" fill="#EBEBEB"/>
<path d="M69.2797 338.08C72.5297 342.72 78.8497 341.19 81.7797 338.35C84.7097 335.51 85.9497 331.41 87.0697 327.5C89.6497 318.55 92.2397 309.16 90.3297 300.05C89.8698 297.288 88.6551 294.706 86.8197 292.59C85.8905 291.551 84.706 290.773 83.3834 290.333C82.0609 289.893 80.6463 289.806 79.2797 290.08C76.0897 290.92 74.1097 294.08 72.6797 297.01C68.4636 305.769 66.2565 315.359 66.2197 325.08C66.2197 329.61 66.7297 334.35 69.2797 338.08Z" fill="#EBEBEB"/>
<path d="M60.3597 344.74C63.8897 340.55 64.5597 334.45 62.9897 329.2C61.4197 323.95 57.8697 319.49 53.7797 315.84C48.9692 311.561 43.3718 308.26 37.2997 306.12C34.9463 305.169 32.415 304.74 29.8797 304.86C28.6149 304.932 27.387 305.313 26.3029 305.968C25.2188 306.623 24.3114 307.534 23.6597 308.62C21.9197 311.93 23.5897 315.94 25.3897 319.22C28.5595 324.991 32.1773 330.505 36.2097 335.71C39.4597 339.89 43.2097 344.02 48.1197 345.91C53.0297 347.8 58.2097 347.58 60.8297 344.15" fill="#EBEBEB"/>
<path d="M69.0602 408.1C69.2338 407.413 69.3344 406.709 69.3602 406C69.5102 404.46 69.6902 402.53 69.9202 400.24C70.2068 397.407 70.6374 394.59 71.2102 391.8C71.9616 388.39 72.9883 385.045 74.2802 381.8C75.5472 378.577 77.2606 375.547 79.3702 372.8C81.0947 370.567 83.2901 368.74 85.8002 367.45C87.5073 366.609 89.3364 366.042 91.2202 365.77C91.9293 365.743 92.6333 365.639 93.3202 365.46C92.6123 365.382 91.898 365.382 91.1902 365.46C89.234 365.608 87.3202 366.106 85.5402 366.93C82.8895 368.181 80.5652 370.029 78.7502 372.33C76.5423 375.114 74.7627 378.211 73.4702 381.52C72.1798 384.804 71.1761 388.193 70.4702 391.65C69.9261 394.476 69.5488 397.331 69.3402 400.2C69.1602 402.65 69.0902 404.63 69.0602 406C68.9865 406.698 68.9865 407.402 69.0602 408.1Z" fill="#E0E0E0"/>
<path d="M69.4593 403.68C69.5187 403.35 69.5388 403.015 69.5193 402.68C69.5193 401.94 69.5193 401.01 69.5193 399.88C69.5193 397.45 69.5193 393.93 69.6393 389.59C69.8593 380.91 70.6393 371.59 72.0493 358.4C73.4193 346.01 75.2493 331.6 77.1893 322.23C77.5993 320.1 78.0193 318.18 78.4193 316.5C78.8193 314.82 79.1093 313.36 79.4193 312.19C79.7293 311.02 79.8993 310.19 80.0793 309.47C80.1771 309.145 80.2342 308.809 80.2493 308.47C80.0987 308.762 79.9845 309.071 79.9093 309.39C79.6893 310.1 79.4193 310.98 79.0893 312.07C78.7593 313.16 78.3593 314.68 77.9393 316.35C77.5193 318.02 77.0393 319.94 76.5893 322.07C74.187 333.152 72.3811 344.355 71.1793 355.63C69.7393 368.83 69.0893 380.85 69.0293 389.55C69.0293 393.9 69.0293 397.43 69.1793 399.86C69.2493 400.99 69.3093 401.92 69.3493 402.65C69.3444 402.997 69.3814 403.343 69.4593 403.68Z" fill="#E0E0E0"/>
<path d="M69.5193 380.5C69.5955 379.525 69.5955 378.546 69.5193 377.57C69.4093 375.69 69.1493 372.98 68.6193 369.65C67.9652 365.757 67.0905 361.904 65.9993 358.11C64.7382 353.441 63.1235 348.875 61.1693 344.45C57.8235 336.298 53.022 328.823 46.9993 322.39C45.9543 321.286 44.8387 320.25 43.6593 319.29C43.1493 318.85 42.6593 318.42 42.2393 318.08L40.9993 317.19C40.221 316.596 39.3949 316.068 38.5293 315.61C38.3893 315.8 42.0193 317.94 46.5993 322.81C52.4251 329.303 57.099 336.744 60.4193 344.81C62.3398 349.206 63.9602 353.726 65.2693 358.34C66.369 362.099 67.2801 365.911 67.9993 369.76C68.5993 373.05 68.9993 375.76 69.1593 377.6C69.2021 378.575 69.3224 379.545 69.5193 380.5Z" fill="#E0E0E0"/>
<path d="M45.5596 417.86L47.8796 449.69H88.7696L91.0896 417.86H45.5596Z" fill="#EBEBEB"/>
<path d="M95.9594 405.32H41.6094V417.86H95.9594V405.32Z" fill="#EBEBEB"/>
<path d="M41.6094 448.47V451.94H44.1694H95.0694V448.47H41.6094Z" fill="#E0E0E0"/>
<path d="M46.6699 457.68L44.1699 451.56H93.1199L90.1999 457.68H46.6699Z" fill="#E0E0E0"/>
<path d="M90.33 428.26C90.2789 428.367 90.2151 428.468 90.14 428.56C89.98 428.77 89.77 429.04 89.53 429.37L87.15 432.37L87.04 432.51L86.94 432.37L81.09 424.28H81.42L75.66 432.43L75.48 432.69L75.28 432.45L68.45 424.32H68.84L68.47 424.8L62.36 432.45L62.15 432.71L61.97 432.44L56.2 424.29H56.54L49.44 432.37L49.32 432.52L49.22 432.35L47 428.67C46.76 428.27 46.58 427.94 46.43 427.67C46.3546 427.558 46.2941 427.437 46.25 427.31C46.3436 427.406 46.4243 427.513 46.49 427.63L47.12 428.58L49.45 432.25H49.23L56.23 424.07L56.4 423.86L56.56 424.08L62.38 432.2H62L68.09 424.53C68.22 424.37 68.35 424.21 68.46 424.06L68.66 423.81L68.86 424.05L75.67 432.2H75.29L81.11 424.09L81.28 423.85L81.44 424.09C83.75 427.38 85.71 430.17 87.17 432.27H86.96L89.44 429.27C89.71 428.96 89.93 428.71 90.1 428.5C90.1707 428.415 90.2476 428.334 90.33 428.26Z" fill="#F5F5F5"/>
<path d="M91.6594 417.65C91.6594 417.79 81.4094 417.91 68.7794 417.91C56.1494 417.91 45.8994 417.79 45.8994 417.65C45.8994 417.51 56.1394 417.4 68.7794 417.4C81.4194 417.4 91.6594 417.51 91.6594 417.65Z" fill="#F5F5F5"/>
<path d="M378.422 56.8013L370.042 56.8467L370.268 98.5461L378.647 98.5007L378.422 56.8013Z" fill="#E0E0E0"/>
<path d="M319.143 56.9124L297.443 57.0298L297.568 80.0494L319.268 79.932L319.143 56.9124Z" fill="#EBEBEB"/>
<path d="M340.743 56.7957L319.043 56.9131L319.168 79.9327L340.867 79.8153L340.743 56.7957Z" fill="#F5F5F5"/>
<path d="M297.47 63.4C311.897 63.52 326.33 63.4533 340.77 63.2C340.831 63.2 340.89 63.1758 340.933 63.1326C340.976 63.0895 341 63.031 341 62.97C341 62.909 340.976 62.8505 340.933 62.8074C340.89 62.7642 340.831 62.74 340.77 62.74C326.35 62.66 311.89 62.74 297.47 63.01C297.426 63.0201 297.386 63.0448 297.358 63.0803C297.33 63.1157 297.314 63.1597 297.314 63.205C297.314 63.2503 297.33 63.2943 297.358 63.3297C297.386 63.3651 297.426 63.3899 297.47 63.4Z" fill="#E0E0E0"/>
<path d="M323.346 79.5494L283.917 79.7627L284.018 98.5224L323.448 98.3091L323.346 79.5494Z" fill="#EBEBEB"/>
<path d="M362.585 79.337L323.155 79.5503L323.257 98.31L362.686 98.0967L362.585 79.337Z" fill="#F5F5F5"/>
<path d="M283.939 85.0002C310.129 85.2902 336.409 85.0002 362.609 84.6102C362.67 84.6102 362.729 84.586 362.772 84.5429C362.815 84.4997 362.839 84.4412 362.839 84.3802C362.839 84.3192 362.815 84.2607 362.772 84.2176C362.729 84.1745 362.67 84.1502 362.609 84.1502C336.419 84.0102 310.129 84.0202 283.939 84.6002C283.886 84.6002 283.835 84.6213 283.798 84.6588C283.76 84.6963 283.739 84.7472 283.739 84.8002C283.739 84.8533 283.76 84.9042 283.798 84.9417C283.835 84.9792 283.886 85.0002 283.939 85.0002Z" fill="#E0E0E0"/>
<path d="M421.949 98.54H269.189V105.26H421.949V98.54Z" fill="#E0E0E0"/>
<path d="M300.399 101.77H294.199V124.7H300.399V101.77Z" fill="#E0E0E0"/>
<path d="M392.97 101.77H386.77V124.7H392.97V101.77Z" fill="#E0E0E0"/>
<path d="M386.598 41.2471L378.218 41.2925L378.528 98.6416L386.908 98.5963L386.598 41.2471Z" fill="#EBEBEB"/>
<path d="M399.685 51.9261L386.665 51.9966L386.917 98.4759L399.936 98.4055L399.685 51.9261Z" fill="#F5F5F5"/>
<path d="M399.6 60.9C395.272 61.2057 390.928 61.2057 386.6 60.9C390.928 60.6076 395.271 60.6076 399.6 60.9Z" fill="#E0E0E0"/>
<path d="M399.6 59.0003C397.437 59.2191 395.263 59.2926 393.09 59.2203C390.918 59.2923 388.743 59.2188 386.58 59.0003C390.908 58.6946 395.252 58.6946 399.58 59.0003H399.6Z" fill="#E0E0E0"/>
<path d="M399.6 91.4303C395.272 91.736 390.928 91.736 386.6 91.4303C390.928 91.1378 395.271 91.1378 399.6 91.4303Z" fill="#E0E0E0"/>
<path d="M399.6 89.4803C395.271 89.7727 390.928 89.7727 386.6 89.4803C390.928 89.1745 395.272 89.1745 399.6 89.4803Z" fill="#E0E0E0"/>
<path d="M393.3 85.22C393.18 85.22 393.08 80.53 393.08 74.75C393.08 68.97 393.18 64.27 393.3 64.27C393.42 64.27 393.53 68.96 393.53 74.75C393.53 80.54 393.43 85.22 393.3 85.22Z" fill="#E0E0E0"/>
<path d="M413.92 63.3604H399.75V98.4404H413.92V63.3604Z" fill="#EBEBEB"/>
<path d="M382.28 53.4704C383.611 53.4704 384.69 52.3914 384.69 51.0604C384.69 49.7294 383.611 48.6504 382.28 48.6504C380.949 48.6504 379.87 49.7294 379.87 51.0604C379.87 52.3914 380.949 53.4704 382.28 53.4704Z" fill="#E0E0E0"/>
<path d="M383.03 57.6899H381.54V91.8099H383.03V57.6899Z" fill="#E0E0E0"/>
<path d="M464.66 459.35C464.66 459.5 368.54 459.61 250.01 459.61C131.48 459.61 35.3398 459.5 35.3398 459.35C35.3398 459.2 131.44 459.09 250.01 459.09C368.58 459.09 464.66 459.21 464.66 459.35Z" fill="#263238"/>
<path d="M149.211 92.3496C153.926 98.1207 156.48 105.357 156.43 112.81C156.38 117.03 155.601 121.68 158.061 125.11C159.921 127.71 163.321 129.02 164.831 131.84C166.651 135.23 165.101 139.52 166.221 143.2C167.801 148.42 173.921 150.61 177.551 154.68C179.098 156.479 180.18 158.631 180.703 160.946C181.226 163.261 181.174 165.669 180.551 167.96C179.889 170.24 178.693 172.33 177.062 174.055C175.43 175.781 173.411 177.092 171.171 177.88C168.779 178.823 166.111 178.779 163.751 177.76C161.301 176.54 159.751 174.03 158.551 171.58C156.141 166.76 134.971 140.71 133.771 135.45" fill="#263238"/>
<path d="M133.81 86.21C125.15 84.81 116.81 90.56 113.18 98.54C109.55 106.52 109.43 115.54 109.18 124.34C108.93 133.14 108.29 142.26 103.82 149.8C100.98 154.59 96.5802 158.8 95.8902 164.31C95.2702 169.25 97.8302 174.23 96.9802 179.14C96.2402 183.42 92.9802 187.14 93.1102 191.47C93.2702 196.69 98.6402 200.62 103.85 200.76C109.06 200.9 113.94 198.17 118.03 194.93C124.694 189.639 130.026 182.862 133.6 175.14" fill="#263238"/>
<path d="M119.56 106.85C119.288 104.671 119.456 102.461 120.055 100.348C120.654 98.2364 121.671 96.2661 123.046 94.5546C124.42 92.8431 126.125 91.4252 128.058 90.3851C129.992 89.345 132.114 88.7038 134.3 88.4998C143.03 87.6598 150.8 94.1698 152.11 102.85C153.26 110.46 154.24 118.14 154.21 120.93C154.1 129.34 149.21 132.61 147.21 133.6C146.491 133.858 145.747 134.042 144.99 134.15V134.21L146.85 143.87C147.7 150.2 144.17 155.87 137.85 156.76C131.53 157.65 126.56 152.82 125.59 146.49L119.56 106.85Z" fill="#FFBE9D"/>
<path d="M150.39 106.53C150.25 106.73 149.14 106.14 147.72 106.35C146.3 106.56 145.35 107.42 145.17 107.27C144.99 107.12 145.17 106.87 145.61 106.47C146.157 105.937 146.855 105.587 147.61 105.47C148.35 105.355 149.107 105.482 149.77 105.83C150.27 106.15 150.46 106.45 150.39 106.53Z" fill="#263238"/>
<path d="M137.73 109.61C137.59 109.81 136.48 109.21 135.05 109.42C133.62 109.63 132.69 110.5 132.51 110.35C132.33 110.2 132.51 109.94 132.95 109.55C133.496 109.017 134.195 108.668 134.95 108.55C135.691 108.444 136.446 108.574 137.11 108.92C137.6 109.23 137.8 109.52 137.73 109.61Z" fill="#263238"/>
<path d="M142.921 117.24C143.636 116.896 144.392 116.644 145.171 116.49C145.531 116.4 145.861 116.28 145.891 116.02C145.858 115.654 145.719 115.307 145.491 115.02L144.001 112.36C141.931 108.64 140.381 105.56 140.531 105.47C140.681 105.38 142.531 108.35 144.531 112.07C145.041 112.99 145.531 113.87 145.971 114.7C146.261 115.106 146.402 115.601 146.371 116.1C146.338 116.236 146.273 116.363 146.183 116.471C146.093 116.578 145.979 116.664 145.851 116.72C145.656 116.805 145.451 116.866 145.241 116.9C144.485 117.114 143.705 117.228 142.921 117.24Z" fill="#263238"/>
<path d="M144.91 134.16C144.91 134.16 139.48 135.41 132 132.28C132 132.28 135.23 139.23 145.42 136.76L144.91 134.16Z" fill="#EB996E"/>
<path d="M137 105.88C136.92 106.29 135.47 106.31 133.83 106.76C132.19 107.21 130.9 107.85 130.63 107.54C130.51 107.39 130.69 106.99 131.18 106.54C131.839 105.975 132.619 105.569 133.459 105.35C134.3 105.132 135.179 105.108 136.03 105.28C136.69 105.43 137 105.69 137 105.88Z" fill="#263238"/>
<path d="M149.22 103.38C149.02 103.74 147.99 103.55 146.81 103.7C145.63 103.85 144.66 104.24 144.38 103.93C144.26 103.78 144.38 103.44 144.76 103.07C145.284 102.605 145.942 102.318 146.64 102.25C147.328 102.167 148.026 102.296 148.64 102.62C149.12 102.89 149.31 103.2 149.22 103.38Z" fill="#263238"/>
<path d="M134.64 111.45C134.662 111.605 134.714 111.754 134.794 111.888C134.874 112.022 134.98 112.139 135.106 112.232C135.231 112.325 135.374 112.392 135.526 112.43C135.678 112.467 135.835 112.474 135.99 112.45C136.14 112.433 136.285 112.386 136.417 112.312C136.549 112.238 136.665 112.138 136.758 112.019C136.851 111.9 136.919 111.764 136.959 111.618C136.999 111.472 137.009 111.32 136.99 111.17C136.943 110.859 136.774 110.578 136.521 110.391C136.268 110.204 135.951 110.124 135.64 110.17C135.489 110.186 135.343 110.232 135.211 110.306C135.078 110.379 134.962 110.479 134.868 110.598C134.775 110.717 134.707 110.854 134.668 111.001C134.628 111.147 134.619 111.3 134.64 111.45Z" fill="#263238"/>
<path d="M147.25 108.72C147.297 109.031 147.465 109.311 147.719 109.499C147.972 109.686 148.289 109.766 148.6 109.72C148.75 109.703 148.896 109.656 149.027 109.582C149.159 109.508 149.275 109.408 149.368 109.289C149.461 109.17 149.53 109.034 149.569 108.888C149.609 108.742 149.62 108.59 149.6 108.44C149.553 108.129 149.385 107.848 149.132 107.661C148.879 107.474 148.562 107.394 148.25 107.44C148.099 107.456 147.953 107.502 147.821 107.576C147.688 107.649 147.572 107.749 147.479 107.868C147.385 107.987 147.317 108.124 147.278 108.271C147.239 108.417 147.229 108.57 147.25 108.72Z" fill="#263238"/>
<path d="M145.16 120C144.767 119.878 144.344 119.897 143.964 120.054C143.584 120.211 143.271 120.496 143.08 120.86C142.897 121.194 142.822 121.577 142.867 121.955C142.912 122.333 143.074 122.688 143.33 122.97C143.602 123.238 143.961 123.4 144.342 123.427C144.723 123.455 145.102 123.346 145.41 123.12C145.796 122.769 146.029 122.281 146.06 121.76C146.128 121.282 146.013 120.797 145.74 120.4C145.599 120.206 145.399 120.063 145.169 119.995C144.94 119.926 144.694 119.935 144.47 120.02" fill="#EB996E"/>
<path d="M151 95.9998C150.215 92.8315 148.256 90.0794 145.52 88.2998C143.28 86.682 140.619 85.7476 137.86 85.6098C135.083 85.4903 132.372 86.4755 130.32 88.3498C128.864 89.7932 128.031 91.7497 128 93.7998L128.16 92.3998C127.74 93.539 127.74 94.7907 128.16 95.9298C128.39 96.5398 128.67 97.1598 128.91 97.7698C129.626 99.5326 130.954 100.978 132.65 101.84C133.418 102.252 134.278 102.462 135.15 102.45C135.586 102.441 136.015 102.337 136.407 102.145C136.799 101.954 137.145 101.679 137.42 101.34C138.041 100.256 138.233 98.9787 137.96 97.7598C138.616 98.9643 139.552 99.9933 140.69 100.76C141.271 101.131 141.961 101.291 142.646 101.213C143.331 101.134 143.968 100.823 144.45 100.33C145.27 99.3298 144.95 97.7498 144.45 96.5098C145.224 97.6794 146.307 98.6108 147.58 99.1998C147.915 99.3919 148.286 99.5125 148.67 99.5538C149.054 99.5951 149.442 99.5563 149.81 99.4398C150.104 99.2939 150.361 99.0831 150.562 98.8232C150.763 98.5634 150.903 98.2614 150.97 97.9398C151.118 97.3027 151.129 96.6412 151 95.9998Z" fill="#263238"/>
<path d="M143.77 98.6597C143.68 98.6597 143.7 97.4697 143.31 95.6597C142.861 93.2546 141.651 91.057 139.86 89.3897C138.876 88.4946 137.688 87.8528 136.4 87.5197C135.345 87.2608 134.247 87.2335 133.18 87.4397C132.197 87.6695 131.258 88.0579 130.4 88.5897C130.4 88.5897 130.57 88.3397 131.01 88.0197C131.642 87.578 132.351 87.2591 133.1 87.0797C134.222 86.8172 135.389 86.8172 136.51 87.0797C137.892 87.4247 139.165 88.1126 140.21 89.0797C142.086 90.8157 143.31 93.1413 143.68 95.6697C143.799 96.4172 143.86 97.1728 143.86 97.9297C143.873 98.1764 143.842 98.4234 143.77 98.6597Z" fill="#455A64"/>
<path d="M235.871 215.25L197.421 200C197.421 200 177.731 174.17 178.141 173.67L164.311 188.81L184.411 216L231.001 226.92L239.001 224.7C237.241 216.21 235.871 215.25 235.871 215.25Z" fill="#FFBE9D"/>
<path d="M152.07 141.56L146.83 139.56L124.21 142.43V146.43L123.56 146.51C118.684 147.547 114.008 149.363 109.71 151.89C105.685 154.347 102.487 157.952 100.527 162.242C98.5664 166.531 97.9339 171.308 98.7104 175.96C99.6304 181.68 101.41 188.63 104.85 192.65C111.42 200.34 117.42 190.84 117.42 190.84C117.42 190.84 121.54 200.24 121.3 204.69C121.1 208.42 119.46 216.18 118.93 218.6C118.909 218.697 118.907 218.797 118.925 218.894C118.943 218.992 118.981 219.085 119.036 219.167C119.091 219.249 119.163 219.319 119.246 219.373C119.329 219.427 119.423 219.463 119.52 219.48L167.24 228.31L167.47 216.64L165.95 168.64L163.8 150C163.8 150 163.87 141.1 152.07 141.56Z" fill="#1A3764"/>
<path d="M163.07 146.9L181.27 173.19L166.62 191.03L163.07 146.9Z" fill="#1A3764"/>
<path d="M167 202.22C166.935 201.656 166.912 201.087 166.93 200.52C166.93 199.34 166.93 197.79 166.87 195.9C166.782 190.827 166.418 185.763 165.78 180.73C165.03 174.83 163.88 169.56 163.01 165.73L161.95 161.23C161.797 160.686 161.683 160.131 161.61 159.57C161.838 160.089 162.019 160.628 162.15 161.18C162.46 162.18 162.88 163.75 163.36 165.65C164.652 170.584 165.633 175.594 166.3 180.65C166.943 185.704 167.257 190.795 167.24 195.89C167.24 197.89 167.19 199.43 167.13 200.52C167.135 201.089 167.092 201.658 167 202.22Z" fill="#263238"/>
<path d="M122.2 162.25C122.2 162.33 120.82 162.32 118.61 162.43C115.726 162.586 112.858 162.957 110.03 163.54C107.202 164.133 104.421 164.932 101.71 165.93C99.6298 166.7 98.3798 167.27 98.3398 167.19C98.5962 166.989 98.8788 166.824 99.1798 166.7C99.7298 166.4 100.55 166.02 101.58 165.59C106.976 163.362 112.743 162.167 118.58 162.07C119.7 162.07 120.58 162.07 121.23 162.13C121.557 162.119 121.885 162.16 122.2 162.25Z" fill="#FAFAFA"/>
<path d="M164.35 174.28C163.619 174.546 162.856 174.714 162.08 174.78C158.383 175.32 154.636 175.447 150.91 175.16C150.132 175.146 149.359 175.032 148.61 174.82C149.382 174.751 150.159 174.751 150.93 174.82C152.35 174.82 154.32 174.82 156.49 174.82C158.66 174.82 160.62 174.6 162.04 174.47C162.803 174.337 163.576 174.273 164.35 174.28Z" fill="#FAFAFA"/>
<path d="M172.7 162.39C171.598 163.664 170.277 164.73 168.8 165.54C167.406 166.483 165.85 167.16 164.21 167.54C164.15 167.4 166.21 166.54 168.53 165.06C170.85 163.58 172.6 162.27 172.7 162.39Z" fill="#FAFAFA"/>
<path d="M165.35 150.2C162.195 153.038 158.175 154.729 153.94 155C153.94 154.84 156.69 154.42 159.85 153.07C163.01 151.72 165.25 150.07 165.35 150.2Z" fill="#FAFAFA"/>
<path d="M166.34 194.64C166.045 194.838 165.73 195.002 165.4 195.13C164.77 195.43 163.86 195.8 162.7 196.23C159.686 197.313 156.575 198.103 153.41 198.59C150.245 199.078 147.039 199.256 143.84 199.12C142.61 199.07 141.62 198.98 140.94 198.89C140.584 198.866 140.231 198.802 139.89 198.7C139.89 198.61 141.41 198.7 143.89 198.76C150.248 198.819 156.573 197.847 162.62 195.88C164.9 195.13 166.31 194.56 166.34 194.64Z" fill="#FAFAFA"/>
<path d="M166.71 208.19C166.71 208.19 166.57 208.29 166.28 208.44L165 209C163.9 209.52 162.27 210.2 160.23 211C158.19 211.8 155.72 212.57 152.94 213.33C146.897 214.957 140.693 215.92 134.44 216.2C131.56 216.31 128.97 216.3 126.79 216.2C124.61 216.1 122.86 215.94 121.65 215.77L120.26 215.58C120.097 215.568 119.935 215.534 119.78 215.48C119.943 215.454 120.108 215.454 120.27 215.48L121.67 215.57C122.88 215.67 124.67 215.77 126.8 215.83C128.93 215.89 131.56 215.83 134.42 215.73C137.28 215.63 140.42 215.27 143.69 214.73C146.96 214.19 150.04 213.54 152.82 212.84C155.6 212.14 158.06 211.35 160.1 210.62C162.14 209.89 163.8 209.28 164.92 208.82L166.22 208.31C166.379 208.253 166.543 208.213 166.71 208.19Z" fill="#FAFAFA"/>
<path d="M79.0001 420.78L73.5901 445.21L63.7201 463.3C63.5522 463.609 63.4495 463.949 63.4183 464.299C63.3871 464.649 63.4281 465.002 63.5387 465.335C63.6493 465.669 63.8272 465.977 64.0614 466.239C64.2955 466.501 64.581 466.712 64.9001 466.86C65.2705 467.03 65.6763 467.109 66.0834 467.089C66.4906 467.07 66.8872 466.954 67.2401 466.75C71.8201 464.11 88.6301 454.28 88.9201 452.47C89.2701 450.38 96.3401 427.08 96.3401 427.08L79.0001 420.78Z" fill="#1A3764"/>
<g opacity="0.6">
<path d="M64.9004 466.86L89.3304 450.86L89.0704 451.86C88.8566 452.752 88.3319 453.539 87.5904 454.08C85.5904 455.51 80.0204 459.35 67.3204 466.77C66.9558 466.983 66.544 467.103 66.1217 467.119C65.6994 467.135 65.2799 467.046 64.9004 466.86Z" fill="white"/>
</g>
<g opacity="0.6">
<path d="M86.2602 441.77C85.9074 441.917 85.6213 442.189 85.4571 442.534C85.2928 442.879 85.2619 443.273 85.3702 443.64C85.5037 443.997 85.7688 444.289 86.111 444.456C86.4533 444.623 86.8466 444.653 87.2102 444.54C87.588 444.384 87.8938 444.092 88.0677 443.722C88.2415 443.352 88.271 442.93 88.1502 442.54C87.9731 442.186 87.6673 441.913 87.2954 441.777C86.9235 441.641 86.5137 441.653 86.1502 441.81" fill="white"/>
</g>
<path d="M73.0597 457.6C72.6563 456.7 72.0901 455.883 71.3897 455.19C70.583 454.628 69.677 454.224 68.7197 454C68.7197 453.93 69.0697 453.82 69.6597 453.88C70.4275 453.979 71.15 454.298 71.7397 454.8C72.334 455.282 72.7723 455.929 72.9997 456.66C73.1697 457.23 73.1197 457.6 73.0597 457.6Z" fill="#263238"/>
<path d="M70.5301 460.43C70.3901 460.51 69.8001 459.53 68.6301 458.86C67.8837 458.513 67.1154 458.216 66.3301 457.97C66.7618 457.828 67.221 457.792 67.6696 457.863C68.1183 457.934 68.5435 458.112 68.9101 458.38C70.2401 459.15 70.6701 460.4 70.5301 460.43Z" fill="#263238"/>
<path d="M77.2997 454.22C76.4493 453.276 75.5265 452.4 74.5396 451.6C73.4524 450.937 72.3157 450.358 71.1396 449.87C72.4921 449.842 73.8104 450.296 74.8596 451.15C76.0164 451.846 76.8829 452.936 77.2997 454.22Z" fill="#263238"/>
<path d="M79.5698 446.93C79.4698 447.06 78.2598 446.17 76.5698 445.68C74.8798 445.19 73.3498 445.27 73.3398 445.1C74.4529 444.812 75.6231 444.829 76.7268 445.152C77.8305 445.474 78.8266 446.088 79.6098 446.93H79.5698Z" fill="#263238"/>
<path d="M81.34 439.8C80.3645 439.197 79.3116 438.729 78.21 438.41C77.0753 438.256 75.9248 438.256 74.79 438.41C74.79 438.35 75.1 438.11 75.74 437.92C76.5813 437.692 77.4643 437.663 78.3186 437.837C79.1729 438.01 79.9747 438.381 80.66 438.92C81.17 439.4 81.38 439.76 81.34 439.8Z" fill="#263238"/>
<path d="M78.5804 437.06C78.5812 436.742 78.6493 436.429 78.7804 436.14C79.0638 435.314 79.513 434.555 80.1004 433.91C80.4848 433.398 81.0254 433.026 81.6404 432.85C81.8498 432.815 82.0647 432.845 82.2572 432.934C82.4498 433.023 82.6111 433.168 82.7204 433.35C82.9042 433.722 82.9434 434.15 82.8304 434.55C82.574 435.352 82.0468 436.04 81.3389 436.496C80.6311 436.952 79.7867 437.148 78.9504 437.05C78.1257 436.932 77.3542 436.573 76.7332 436.018C76.1121 435.463 75.6693 434.736 75.4604 433.93C75.4124 433.725 75.4081 433.512 75.4477 433.305C75.4873 433.099 75.57 432.902 75.6904 432.73C75.8286 432.569 76.0145 432.455 76.2213 432.407C76.4281 432.358 76.6449 432.377 76.8404 432.46C77.4057 432.742 77.8881 433.166 78.2404 433.69C78.7704 434.383 79.1733 435.166 79.4304 436C79.5523 436.298 79.6102 436.618 79.6004 436.94C79.1973 435.862 78.6343 434.85 77.9304 433.94C77.6027 433.512 77.1775 433.17 76.6904 432.94C76.5833 432.893 76.464 432.883 76.3505 432.91C76.2369 432.937 76.1351 433 76.0604 433.09C75.9905 433.208 75.9456 433.339 75.9284 433.474C75.9112 433.61 75.9221 433.748 75.9604 433.88C76.169 434.558 76.565 435.164 77.1028 435.628C77.6407 436.091 78.2984 436.394 79.0004 436.5C79.7077 436.582 80.422 436.422 81.0268 436.046C81.6315 435.67 82.0911 435.1 82.3304 434.43C82.4273 434.158 82.4273 433.861 82.3304 433.59C82.2737 433.487 82.1863 433.405 82.0805 433.355C81.9746 433.305 81.8557 433.289 81.7404 433.31C81.2193 433.453 80.7549 433.753 80.4104 434.17C79.6433 435.024 79.0248 436.001 78.5804 437.06Z" fill="#263238"/>
<g opacity="0.3">
<path d="M78.3399 423.43L77.1699 429.03L94.8599 431.97L96.3399 427.08L78.9699 420.78L78.3399 423.43Z" fill="black"/>
</g>
<path d="M158 429.82L156.54 449.34C156.54 449.34 175.9 457.34 175.98 461.02L137.98 459.55L138.98 429.03L158 429.82Z" fill="#1A3764"/>
<g opacity="0.6">
<path d="M144.89 447.24C144.522 447.339 144.202 447.569 143.992 447.888C143.782 448.207 143.696 448.592 143.75 448.97C143.835 449.342 144.057 449.668 144.373 449.881C144.689 450.095 145.074 450.18 145.45 450.12C145.843 450.016 146.182 449.77 146.404 449.43C146.626 449.091 146.713 448.681 146.65 448.28C146.524 447.9 146.256 447.584 145.902 447.398C145.547 447.211 145.135 447.169 144.75 447.28" fill="white"/>
</g>
<g opacity="0.6">
<path d="M138 459.55L138.22 456.47L174.57 459C174.57 459 176.24 459.8 176 461L138 459.55Z" fill="white"/>
</g>
<path d="M157.18 449.17C157.18 449.36 156.24 449.41 155.31 449.97C154.38 450.53 153.86 451.29 153.69 451.21C153.52 451.13 153.84 450.07 154.98 449.41C156.12 448.75 157.23 449 157.18 449.17Z" fill="#263238"/>
<path d="M161.1 451C161.1 451.19 160.32 451.47 159.66 452.23C159 452.99 158.79 453.81 158.6 453.8C158.41 453.79 158.34 452.73 159.18 451.8C160.02 450.87 161.1 450.8 161.1 451Z" fill="#263238"/>
<path d="M163.18 455.83C163.01 455.83 162.79 454.92 163.3 453.93C163.81 452.94 164.7 452.56 164.77 452.72C164.84 452.88 164.29 453.4 163.88 454.22C163.47 455.04 163.36 455.82 163.18 455.83Z" fill="#263238"/>
<path d="M157 444.69C156.92 444.85 156.08 444.56 155 444.59C153.92 444.62 153.12 444.92 153 444.76C152.88 444.6 153.72 443.97 155 443.95C156.28 443.93 157.12 444.55 157 444.69Z" fill="#263238"/>
<g opacity="0.3">
<path d="M157.73 433.69L157.47 437.17L138.82 436.27L138.95 432.25L157.73 433.69Z" fill="black"/>
</g>
<path d="M157.25 440.74C156.622 440.892 155.963 440.864 155.35 440.66C154.657 440.516 153.985 440.284 153.35 439.97C152.98 439.788 152.622 439.58 152.28 439.35C152.071 439.222 151.882 439.063 151.72 438.88C151.61 438.737 151.55 438.561 151.55 438.38C151.55 438.199 151.61 438.023 151.72 437.88C151.817 437.753 151.943 437.652 152.088 437.584C152.232 437.516 152.39 437.484 152.55 437.49C152.791 437.5 153.029 437.54 153.26 437.61C153.66 437.727 154.048 437.881 154.42 438.07C155.051 438.378 155.629 438.787 156.13 439.28C156.98 440.13 157.25 440.84 157.19 440.87C157.13 440.9 156.7 440.33 155.83 439.62C155.319 439.221 154.762 438.885 154.17 438.62C153.817 438.474 153.457 438.347 153.09 438.24C152.69 438.12 152.35 438.11 152.24 438.24C152.13 438.37 152.24 438.34 152.24 438.46C152.36 438.592 152.498 438.707 152.65 438.8C152.971 439.023 153.305 439.227 153.65 439.41C154.227 439.728 154.833 439.989 155.46 440.19C156.069 440.331 156.667 440.514 157.25 440.74Z" fill="#263238"/>
<path d="M157 441C156.668 440.439 156.517 439.79 156.57 439.14C156.574 438.436 156.688 437.738 156.91 437.07C157.053 436.679 157.231 436.301 157.44 435.94C157.552 435.693 157.726 435.478 157.945 435.317C158.164 435.156 158.42 435.054 158.69 435.02C158.861 435.031 159.025 435.091 159.163 435.191C159.301 435.292 159.407 435.431 159.47 435.59C159.557 435.814 159.611 436.05 159.63 436.29C159.696 436.714 159.696 437.146 159.63 437.57C159.496 438.277 159.19 438.94 158.74 439.5C157.96 440.5 157.18 440.65 157.16 440.59C157.14 440.53 157.76 440.16 158.37 439.23C158.72 438.7 158.949 438.099 159.04 437.47C159.09 437.105 159.09 436.735 159.04 436.37C158.99 435.97 158.85 435.63 158.7 435.67C158.55 435.71 158.18 435.95 158.01 436.27C157.815 436.59 157.644 436.924 157.5 437.27C157.268 437.874 157.12 438.506 157.06 439.15C156.93 440.27 157.1 441 157 441Z" fill="#263238"/>
<path d="M118.72 219.3C118.72 219.3 112.72 219.57 108.72 240.09C104.72 260.61 74.2305 426.88 74.2305 426.88L96.3405 427.08L138 269L135.23 432L157.69 433.72C157.69 433.72 174.54 253.43 174.69 242.94C174.89 229.86 167.38 216.63 167.38 216.63L118.72 219.3Z" fill="#263238"/>
<path d="M149.11 217.55C149.25 217.55 146.95 229.3 143.98 243.73C141.01 258.16 138.49 269.84 138.35 269.81C138.21 269.78 140.5 258.06 143.47 243.63C146.44 229.2 149 217.52 149.11 217.55Z" fill="#455A64"/>
<path d="M152.55 220.48C152.55 220.42 153.15 220.24 153.84 220.85C154.036 221.028 154.191 221.246 154.294 221.489C154.398 221.732 154.448 221.995 154.44 222.26C154.415 222.594 154.295 222.915 154.095 223.184C153.895 223.453 153.623 223.66 153.31 223.78C153.004 223.918 152.666 223.969 152.334 223.924C152.001 223.88 151.688 223.743 151.43 223.53C151.236 223.349 151.084 223.128 150.982 222.883C150.88 222.639 150.832 222.375 150.84 222.11C150.84 221.19 151.46 220.87 151.47 220.93C151.301 221.297 151.212 221.696 151.21 222.1C151.223 222.303 151.277 222.501 151.368 222.683C151.459 222.865 151.585 223.027 151.74 223.16C151.937 223.296 152.165 223.38 152.404 223.405C152.642 223.43 152.883 223.394 153.104 223.301C153.325 223.209 153.519 223.062 153.669 222.875C153.818 222.688 153.918 222.466 153.96 222.23C153.974 222.027 153.948 221.824 153.883 221.631C153.818 221.439 153.715 221.262 153.58 221.11C153.09 220.54 152.54 220.56 152.55 220.48Z" fill="#455A64"/>
<path d="M151.6 228.6C151.6 228.54 152.22 228.6 152.6 229.43C152.697 229.667 152.741 229.922 152.729 230.177C152.716 230.433 152.649 230.683 152.53 230.91C152.358 231.179 152.116 231.397 151.83 231.539C151.543 231.681 151.224 231.743 150.905 231.717C150.586 231.692 150.281 231.58 150.021 231.393C149.761 231.207 149.557 230.953 149.43 230.66C149.35 230.419 149.324 230.163 149.353 229.911C149.383 229.659 149.467 229.416 149.6 229.2C150.07 228.45 150.71 228.47 150.69 228.53C150.67 228.59 150.21 228.73 149.92 229.37C149.773 229.729 149.773 230.131 149.92 230.49C150.025 230.688 150.178 230.857 150.365 230.98C150.552 231.104 150.767 231.178 150.991 231.196C151.214 231.214 151.439 231.175 151.643 231.083C151.848 230.991 152.025 230.849 152.16 230.67C152.349 230.328 152.395 229.926 152.29 229.55C152 228.87 151.55 228.67 151.6 228.6Z" fill="#455A64"/>
<path d="M130.41 220.68C130.369 221.023 130.281 221.36 130.15 221.68C129.838 222.595 129.446 223.482 128.98 224.33C127.454 227.159 125.251 229.565 122.566 231.333C119.882 233.101 116.801 234.175 113.6 234.46C112.638 234.543 111.671 234.543 110.71 234.46C110.371 234.449 110.035 234.395 109.71 234.3C109.71 234.2 111.22 234.37 113.61 234.07C116.725 233.692 119.71 232.596 122.33 230.87C124.95 229.143 127.134 226.833 128.71 224.12C129.88 222.1 130.32 220.65 130.41 220.68Z" fill="#455A64"/>
<path d="M173.43 235.27C173.43 235.27 173.17 235.15 172.76 234.87C172.187 234.458 171.652 233.996 171.16 233.49C169.516 231.825 168.232 229.839 167.391 227.655C166.549 225.472 166.168 223.138 166.27 220.8C166.293 220.096 166.383 219.396 166.54 218.71C166.65 218.22 166.72 217.96 166.76 217.97C166.8 217.98 166.64 219.06 166.64 220.81C166.642 225.404 168.349 229.833 171.43 233.24C172.6 234.53 173.48 235.19 173.43 235.27Z" fill="#455A64"/>
<path d="M251 235.85C251.33 235.05 251.24 235.37 245.94 231.85C245.94 231.85 253.54 236.85 252.75 234.47C252.067 233.568 251.231 232.793 250.28 232.18C252.28 233.36 253.44 233.49 253.79 233.01C254.39 232.18 250.04 229.01 247.97 227.58C249.862 228.934 251.847 230.153 253.91 231.23C255.14 231.61 254.55 230.17 253.72 229.12C252.89 228.07 246.45 221.87 244.72 220.02C244.555 219.879 244.423 219.704 244.333 219.507C244.242 219.311 244.195 219.097 244.195 218.88C244.195 218.663 244.242 218.449 244.333 218.252C244.423 218.056 244.555 217.881 244.72 217.74C247.82 215.74 249.18 212.55 249.14 211.5C249.106 211.264 248.997 211.044 248.83 210.873C248.663 210.702 248.447 210.589 248.211 210.549C247.976 210.509 247.733 210.544 247.519 210.651C247.305 210.757 247.131 210.928 247.02 211.14C246.237 212.113 245.326 212.974 244.31 213.7C243.522 214.314 242.637 214.791 241.69 215.11C240.59 215.47 235.18 215.17 234.02 214.58L230.33 227.09C230.33 227.09 243.72 233.35 246.26 234.57C249.38 236.05 250.77 236.46 251 235.85Z" fill="#FFBE9D"/>
<path d="M243.53 230C243.42 230.15 245.16 231.42 247.41 232.85C249.66 234.28 251.55 235.31 251.64 235.16C251.73 235.01 249.99 233.73 247.75 232.31C245.51 230.89 243.63 229.81 243.53 230Z" fill="#EB996E"/>
<path d="M244.79 227.55C244.69 227.7 246.47 229.16 248.79 230.82C251.11 232.48 253.03 233.71 253.13 233.57C253.23 233.43 251.46 231.96 249.13 230.3C246.8 228.64 244.9 227.41 244.79 227.55Z" fill="#EB996E"/>
<path d="M246.121 225.07C246.021 225.21 247.681 226.63 249.831 228.23C251.981 229.83 253.831 231.01 253.911 230.87C253.991 230.73 252.361 229.31 250.211 227.71C248.061 226.11 246.231 224.93 246.121 225.07Z" fill="#EB996E"/>
<path d="M109.93 179.76L119.75 180.3C120.446 183.041 121.376 185.718 122.53 188.3C130.44 174.58 136.53 156.19 138.09 148.8C137.87 148.073 137.6 147.253 137.28 146.34C137.041 144.959 137.081 143.544 137.4 142.18C137.67 140.54 138.13 138.32 138.26 137.3C138.69 134.18 139.19 133.68 140.26 134.04C141.74 134.52 139.65 142.81 140.86 142.99C141.52 143.08 142.31 140.24 142.55 137.91C142.79 135.58 143.83 128.42 144.6 127.91C145.73 127.21 146.71 128.32 146.43 130.64C146.15 132.96 145.78 139.99 147.01 140.08C148.24 140.17 149.24 128.29 149.24 128.29C149.24 128.29 149.05 125.71 150.47 125.77C153.04 125.88 151.04 138.41 150.82 139.6C150.66 140.42 152 140.6 152.12 139.68C152.24 138.76 152.86 127.79 155.47 127.88C157.47 127.95 153.92 138.2 155.05 140.58C156.18 142.96 156.96 132.51 158.88 132.65C159.59 132.71 160.12 132.85 158.81 138.76C157.532 143.459 155.999 148.086 154.22 152.62C151.22 169.02 137.83 221.48 116.91 211.88C105.21 206.51 99.7402 179.88 99.7402 179.88L109.93 179.76Z" fill="#FFBE9D"/>
<path d="M154.24 152.71C154.257 152.586 154.291 152.465 154.34 152.35C154.43 152.09 154.54 151.75 154.69 151.35C155.02 150.4 155.47 149.08 156.06 147.35C156.65 145.62 157.36 143.52 158.06 141.04C158.42 139.81 158.72 138.47 158.99 137.04C159.13 136.32 159.26 135.58 159.35 134.82C159.375 134.444 159.375 134.066 159.35 133.69C159.35 133.3 159.26 132.98 158.95 132.97C158.64 132.96 158.42 133.15 158.2 133.48C158.001 133.833 157.837 134.205 157.71 134.59C157.43 135.38 157.21 136.22 156.99 137.07C156.77 137.92 156.57 138.81 156.31 139.71C156.197 140.203 155.993 140.671 155.71 141.09C155.639 141.172 155.545 141.231 155.44 141.26C155.374 141.274 155.306 141.274 155.24 141.258C155.174 141.243 155.113 141.212 155.06 141.17C154.945 141.064 154.85 140.939 154.78 140.8C154.674 140.554 154.604 140.295 154.57 140.03C154.525 138.013 154.726 135.998 155.17 134.03C155.34 133.03 155.52 132.03 155.65 131.03C155.71 130.52 155.77 130.03 155.78 129.49C155.79 128.95 155.71 128.38 155.5 128.29C155.29 128.2 154.78 128.48 154.5 128.9C154.224 129.343 154.005 129.821 153.85 130.32C153.509 131.364 153.252 132.434 153.08 133.52C152.89 134.62 152.74 135.74 152.61 136.88C152.56 137.45 152.5 138.02 152.45 138.6L152.37 139.47C152.381 139.656 152.351 139.841 152.281 140.014C152.212 140.187 152.106 140.343 151.97 140.47C151.799 140.595 151.592 140.662 151.38 140.662C151.168 140.662 150.961 140.595 150.79 140.47C150.693 140.406 150.611 140.322 150.549 140.223C150.487 140.125 150.446 140.015 150.43 139.9C150.415 139.794 150.415 139.686 150.43 139.58V139.37L150.7 137.62C150.87 136.44 151.01 135.26 151.12 134.06C151.23 132.86 151.32 131.65 151.34 130.44C151.399 129.242 151.277 128.042 150.98 126.88C150.911 126.585 150.732 126.327 150.48 126.16C150.36 126.121 150.23 126.121 150.109 126.161C149.989 126.2 149.884 126.277 149.81 126.38C149.486 126.972 149.354 127.649 149.43 128.32C149.21 130.67 148.96 132.98 148.62 135.25C148.45 136.38 148.26 137.51 147.98 138.62C147.9 138.89 147.82 139.17 147.72 139.45C147.625 139.789 147.426 140.09 147.15 140.31C147.028 140.37 146.89 140.386 146.757 140.357C146.625 140.328 146.506 140.255 146.42 140.15C146.298 140.022 146.206 139.868 146.15 139.7C146.042 139.422 145.965 139.134 145.92 138.84C145.686 136.664 145.666 134.47 145.86 132.29C146.008 131.274 146.065 130.246 146.03 129.22C145.998 128.782 145.797 128.373 145.47 128.08C145.393 128.032 145.308 128 145.218 127.987C145.129 127.973 145.038 127.977 144.95 128C144.857 128.031 144.766 128.071 144.68 128.12C144.59 128.2 144.6 128.12 144.54 128.29C144.178 129.189 143.914 130.124 143.75 131.08C143.55 132.08 143.38 132.99 143.23 133.93C143.08 134.87 142.94 135.79 142.82 136.71C142.7 137.63 142.64 138.53 142.46 139.43C142.305 140.309 142.07 141.173 141.76 142.01C141.678 142.223 141.581 142.43 141.47 142.63C141.33 142.82 141.25 143.06 140.87 143.18C140.773 143.198 140.673 143.186 140.582 143.147C140.491 143.108 140.414 143.043 140.36 142.96C140.29 142.844 140.236 142.72 140.2 142.59C140.155 142.372 140.128 142.152 140.12 141.93C140.12 140.22 140.35 138.66 140.44 137.15C140.505 136.428 140.505 135.702 140.44 134.98C140.44 134.66 140.29 134.28 140.11 134.21C139.984 134.148 139.846 134.116 139.705 134.116C139.565 134.116 139.426 134.148 139.3 134.21C138.88 134.661 138.62 135.237 138.56 135.85C138.41 136.46 138.35 137.08 138.24 137.67C137.82 140.03 137.38 142.07 137.17 143.73C137.072 144.46 137.072 145.2 137.17 145.93C137.31 146.53 137.52 147.07 137.63 147.49C137.74 147.91 137.85 148.21 137.92 148.49C137.957 148.597 137.984 148.707 138 148.82C137.94 148.723 137.893 148.619 137.86 148.51L137.52 147.51C137.38 147.08 137.17 146.6 137 145.94C136.893 145.19 136.893 144.429 137 143.68C137.19 141.99 137.59 139.97 138 137.6C138.11 137.01 138.17 136.39 138.3 135.75C138.372 135.412 138.462 135.078 138.57 134.75C138.67 134.386 138.888 134.066 139.19 133.84C139.372 133.743 139.574 133.693 139.78 133.693C139.986 133.693 140.188 133.743 140.37 133.84C140.566 133.963 140.726 134.134 140.837 134.338C140.947 134.541 141.003 134.769 141 135C141.07 135.751 141.07 136.508 141 137.26C140.93 138.78 140.69 140.37 140.73 141.99C140.737 142.181 140.761 142.372 140.8 142.56C140.8 142.75 140.94 142.83 140.92 142.79C140.9 142.75 141.11 142.63 141.19 142.47C141.289 142.292 141.376 142.109 141.45 141.92C141.746 141.109 141.964 140.272 142.1 139.42C142.27 138.55 142.33 137.65 142.45 136.72C142.57 135.79 142.69 134.87 142.84 133.92C142.99 132.97 143.16 132.02 143.35 131.05C143.513 130.037 143.795 129.047 144.19 128.1C144.27 127.941 144.391 127.806 144.54 127.71C144.673 127.637 144.814 127.58 144.96 127.54C145.128 127.492 145.304 127.48 145.476 127.506C145.649 127.532 145.814 127.595 145.96 127.69C146.192 127.874 146.384 128.104 146.523 128.366C146.663 128.627 146.747 128.914 146.77 129.21C146.845 129.754 146.845 130.306 146.77 130.85C146.72 131.36 146.67 131.85 146.64 132.41C146.445 134.54 146.465 136.684 146.7 138.81C146.743 139.062 146.81 139.31 146.9 139.55C146.93 139.647 146.981 139.735 147.05 139.81C147.05 139.81 147.05 139.81 147.1 139.81C147.1 140.04 147.1 139.81 147.1 139.9C147.1 139.99 147.1 139.9 147.1 139.82C147.225 139.653 147.323 139.467 147.39 139.27C147.483 139.023 147.563 138.763 147.63 138.49C147.9 137.43 148.08 136.31 148.25 135.19C148.59 132.94 148.84 130.63 149.05 128.29V128.34C148.961 127.515 149.14 126.684 149.56 125.97C149.721 125.765 149.941 125.616 150.19 125.543C150.439 125.469 150.705 125.475 150.95 125.56C151.16 125.676 151.344 125.833 151.492 126.022C151.64 126.211 151.748 126.428 151.81 126.66C152.13 127.889 152.262 129.161 152.2 130.43C152.2 131.67 152.09 132.89 151.98 134.1C151.87 135.31 151.72 136.5 151.55 137.68C151.46 138.28 151.37 138.86 151.28 139.45C151.2 139.82 151.22 139.83 151.28 139.94C151.35 139.987 151.431 140.012 151.515 140.012C151.599 140.012 151.681 139.987 151.75 139.94C151.87 139.85 151.89 139.68 151.92 139.35L151.99 138.48L152.17 136.75C152.29 135.61 152.45 134.47 152.64 133.36C152.825 132.245 153.093 131.145 153.44 130.07C153.622 129.526 153.867 129.006 154.17 128.52C154.335 128.258 154.553 128.033 154.81 127.86C154.953 127.757 155.118 127.689 155.292 127.663C155.466 127.637 155.644 127.653 155.81 127.71C155.963 127.804 156.093 127.933 156.188 128.085C156.283 128.238 156.342 128.411 156.36 128.59C156.401 128.871 156.418 129.156 156.41 129.44C156.41 129.99 156.34 130.52 156.28 131.05C156.14 132.05 155.95 133.11 155.77 134.12C155.341 136.019 155.133 137.962 155.15 139.91C155.178 140.119 155.232 140.324 155.31 140.52C155.346 140.591 155.39 140.658 155.44 140.72C155.44 140.72 155.44 140.72 155.44 140.65C155.665 140.288 155.83 139.893 155.93 139.48C156.19 138.61 156.4 137.73 156.63 136.87C156.836 136.014 157.087 135.17 157.38 134.34C157.519 133.929 157.7 133.533 157.92 133.16C158.039 132.956 158.195 132.777 158.38 132.63C158.481 132.543 158.601 132.481 158.73 132.45C158.859 132.43 158.991 132.43 159.12 132.45C159.257 132.463 159.387 132.513 159.498 132.594C159.608 132.675 159.696 132.784 159.75 132.91C159.834 133.12 159.878 133.344 159.88 133.57C159.888 133.974 159.864 134.379 159.81 134.78C159.72 135.56 159.57 136.3 159.43 137.03C159.14 138.46 158.82 139.82 158.43 141.03C157.68 143.51 156.93 145.61 156.32 147.32C155.71 149.03 155.19 150.32 154.84 151.24C154.67 151.66 154.53 151.99 154.43 152.24C154.385 152.403 154.322 152.561 154.24 152.71Z" fill="#EB996E"/>
<path d="M99.6504 180.89C101.55 187.6 105.27 197.95 109.26 208.89C109.386 209.242 109.614 209.55 109.914 209.773C110.215 209.996 110.575 210.124 110.949 210.143C111.322 210.161 111.693 210.068 112.014 209.875C112.335 209.682 112.591 209.398 112.75 209.06L122.53 188.37C122.53 188.37 120.17 171.37 120.37 171.98C120.57 172.59 100.19 174.18 100.19 174.18L99.6504 180.89Z" fill="#1A3764"/>
<path d="M121.69 177.56C121.69 177.64 120.47 178 118.54 178.74C116.018 179.697 113.588 180.882 111.28 182.28C108.975 183.684 106.8 185.291 104.78 187.08C103.23 188.45 102.34 189.39 102.28 189.33C102.22 189.27 102.45 189.05 102.83 188.6C103.366 187.975 103.933 187.377 104.53 186.81C106.501 184.912 108.674 183.235 111.01 181.81C113.347 180.402 115.827 179.249 118.41 178.37C119.191 178.101 119.985 177.874 120.79 177.69C121.081 177.599 121.385 177.555 121.69 177.56Z" fill="#FAFAFA"/>
<path d="M125.57 182.72C124.935 182.079 124.384 181.36 123.93 180.58C122.763 178.759 121.759 176.838 120.93 174.84C120.102 172.836 119.456 170.761 119 168.64C118.767 167.773 118.65 166.878 118.65 165.98C118.949 166.818 119.186 167.677 119.36 168.55C119.896 170.621 120.564 172.655 121.36 174.64C122.192 176.615 123.147 178.535 124.22 180.39C124.72 181.137 125.171 181.915 125.57 182.72Z" fill="#263238"/>
<path d="M132.09 91.0997C130.394 93.8959 129.342 97.0352 129.012 100.289C128.681 103.543 129.08 106.83 130.18 109.91C131.18 112.66 132.78 115.37 132.49 118.29C132.2 121.21 129.92 124.1 130.72 126.98C131.2 128.69 132.66 129.98 133.23 131.64C133.88 133.64 133.23 135.75 132.88 137.8C132.08 143.04 133.76 148.31 134.17 153.59C134.58 158.87 133.17 165.06 128.45 167.36C127.02 168.06 125.15 168.26 123.96 167.19C122.44 165.84 122.86 163.4 123.28 161.4C127.42 141.4 114.63 121.88 117.55 101.64C118.02 98.3997 119.83 92.8997 122.16 90.6397C124.49 88.3797 130.96 88.6397 133.16 91.0397" fill="#263238"/>
<path d="M112.39 149.12C112.39 149.12 113 148.4 113.9 146.98C115.163 144.974 116.047 142.754 116.51 140.43C116.811 138.829 116.915 137.196 116.82 135.57C116.645 133.679 116.575 131.779 116.61 129.88C116.669 128.84 116.861 127.812 117.18 126.82C117.545 125.798 118.007 124.814 118.56 123.88C119.68 121.99 121.09 120.23 122.39 118.35C123.725 116.573 124.653 114.525 125.11 112.35C125.331 110.301 125.213 108.23 124.76 106.22C124.381 104.352 124.234 102.444 124.32 100.54C124.439 98.8765 124.775 97.2359 125.32 95.6599C126.084 93.3729 127.286 91.2567 128.86 89.4299C129.278 88.9332 129.732 88.4686 130.22 88.0399C130.374 87.8752 130.549 87.7307 130.74 87.6099C130.74 87.6099 130.07 88.2599 129.01 89.6099C126.485 92.7437 125.009 96.5916 124.79 100.61C124.723 102.483 124.887 104.357 125.28 106.19C125.757 108.254 125.885 110.383 125.66 112.49C125.186 114.726 124.23 116.831 122.86 118.66C121.55 120.57 120.14 122.32 119.04 124.16C118.499 125.059 118.05 126.011 117.7 127C117.383 127.951 117.192 128.939 117.13 129.94C117.085 131.818 117.139 133.697 117.29 135.57C117.369 137.229 117.241 138.892 116.91 140.52C116.409 142.876 115.458 145.114 114.11 147.11C113.745 147.65 113.344 148.164 112.91 148.65C112.754 148.825 112.58 148.983 112.39 149.12Z" fill="#455A64"/>
<path d="M102.91 150.61C102.991 150.377 103.095 150.152 103.22 149.94C103.47 149.47 103.79 148.85 104.22 148.07C105.06 146.44 106.31 144.07 107.54 141.07C109.045 137.566 109.879 133.811 110 130C110.001 128.902 109.917 127.805 109.75 126.72C109.58 125.6 109.32 124.47 109.15 123.29C108.942 122.069 108.969 120.82 109.23 119.61C109.568 118.367 110.264 117.251 111.23 116.4C113.11 114.69 115.38 113.57 116.56 111.56C117.582 109.567 118.185 107.385 118.33 105.15C118.542 103.101 119.005 101.086 119.71 99.1501C121.295 94.9945 124.119 91.4267 127.8 88.9301C128.387 88.5351 128.998 88.1777 129.63 87.8601C129.844 87.7323 130.072 87.6315 130.31 87.5601C130.31 87.5601 129.41 88.0401 127.92 89.1001C125.82 90.5987 124.002 92.4574 122.55 94.5901C121.543 96.052 120.724 97.6343 120.11 99.3001C119.436 101.24 119 103.255 118.81 105.3C118.51 107.43 118.27 109.81 116.99 111.92C115.71 114.03 113.37 115.23 111.58 116.92C110.668 117.712 110.01 118.755 109.69 119.92C109.447 121.065 109.423 122.246 109.62 123.4C109.78 124.55 110.03 125.69 110.2 126.82C110.373 127.931 110.453 129.055 110.44 130.18C110.304 134.061 109.425 137.88 107.85 141.43C106.827 143.829 105.665 146.166 104.37 148.43L103.31 150C103.199 150.217 103.065 150.421 102.91 150.61Z" fill="#455A64"/>
<path d="M433.77 433.18C433.816 433.034 433.877 432.894 433.95 432.76C434.09 432.46 434.28 432.06 434.51 431.55C435.206 429.988 435.765 428.369 436.18 426.71C437.28 422.41 437.67 415.84 436.04 408.04C435.155 403.786 433.996 399.594 432.57 395.49C431.11 391.04 429.4 386.32 428.01 381.21C426.441 375.88 425.682 370.345 425.76 364.79C425.97 358.98 427.69 353.19 429.58 347.41C431.47 341.63 433.42 336 434 330.3C434.645 324.834 433.546 319.304 430.86 314.5C428.36 309.89 425.21 305.94 422.86 301.86C420.66 298.069 419.039 293.97 418.05 289.7C416.631 283.517 416.526 277.106 417.74 270.88C418.183 268.602 418.853 266.374 419.74 264.23C419.713 264.38 419.673 264.527 419.62 264.67L419.22 265.94C418.88 267.06 418.43 268.74 418 270.94C416.882 277.138 417.049 283.499 418.49 289.63C419.493 293.848 421.121 297.893 423.32 301.63C425.67 305.63 428.83 309.63 431.39 314.26C434.141 319.161 435.272 324.807 434.62 330.39C434.03 336.17 432.07 341.86 430.18 347.63C428.29 353.4 426.59 359.13 426.38 364.84C426.291 370.34 427.032 375.822 428.58 381.1C429.95 386.18 431.63 390.9 433.08 395.37C434.492 399.497 435.628 403.712 436.48 407.99C438.07 415.85 437.62 422.49 436.48 426.8C436.034 428.462 435.435 430.079 434.69 431.63L434.07 432.82C433.984 432.951 433.883 433.072 433.77 433.18Z" fill="#263238"/>
<path d="M426.06 305.89C426.06 305.89 421.28 290.58 429.86 281.62C429.927 281.548 430.012 281.496 430.106 281.469C430.201 281.443 430.301 281.443 430.395 281.47C430.489 281.497 430.574 281.55 430.641 281.622C430.707 281.694 430.752 281.784 430.77 281.88C431.23 284.41 431.8 292.11 426.06 305.89Z" fill="#1A3764"/>
<path d="M428.931 286.72C428.916 287.668 428.808 288.612 428.611 289.54C428.291 291.49 427.921 293.77 427.521 296.29C427.121 298.81 426.751 301.1 426.441 303.04C426.353 303.985 426.186 304.922 425.941 305.84C425.847 304.894 425.867 303.941 426.001 303C426.161 301.25 426.471 298.85 426.901 296.21C427.331 293.57 427.801 291.21 428.171 289.48C428.317 288.533 428.572 287.607 428.931 286.72Z" fill="#263238"/>
<path d="M431.681 342C431.681 342 434.611 326.23 446.391 322.33C446.484 322.297 446.584 322.292 446.68 322.313C446.776 322.334 446.864 322.381 446.934 322.45C447.005 322.518 447.055 322.605 447.079 322.701C447.103 322.796 447.1 322.896 447.071 322.99C446.291 325.42 443.201 332.49 431.681 342Z" fill="#1A3764"/>
<path d="M443.181 326.38C442.724 327.213 442.188 328 441.581 328.73L437.451 334.18L433.351 339.65C432.834 340.444 432.249 341.19 431.601 341.88C431.966 341 432.436 340.167 433.001 339.4C434.001 337.93 435.361 335.95 437.001 333.82C438.641 331.69 440.131 329.82 441.261 328.46C441.822 327.698 442.466 327.001 443.181 326.38Z" fill="#263238"/>
<path d="M428.5 381.53C428.5 381.53 426.72 365.59 436.86 358.44C436.938 358.379 437.032 358.341 437.131 358.332C437.23 358.323 437.329 358.341 437.417 358.387C437.506 358.432 437.579 358.501 437.629 358.587C437.679 358.673 437.704 358.771 437.7 358.87C437.67 361.44 436.76 369.1 428.5 381.53Z" fill="#1A3764"/>
<path d="M435 363.26C434.814 364.191 434.529 365.099 434.15 365.97L431.79 372.39C430.91 374.79 430.12 376.96 429.45 378.81C429.194 379.72 428.859 380.607 428.45 381.46C428.543 380.511 428.751 379.578 429.07 378.68C429.56 377 430.32 374.68 431.25 372.18C432.18 369.68 433.09 367.43 433.78 365.82C434.099 364.927 434.507 364.069 435 363.26Z" fill="#263238"/>
<path d="M437.37 421.31C437.37 421.31 436.17 405.31 446.55 398.53C446.632 398.474 446.727 398.442 446.825 398.437C446.924 398.432 447.022 398.455 447.108 398.503C447.194 398.551 447.265 398.622 447.313 398.708C447.362 398.794 447.385 398.891 447.38 398.99C447.26 401.56 446.08 409.19 437.37 421.31Z" fill="#1A3764"/>
<path d="M444.491 403.29C444.267 404.214 443.949 405.112 443.541 405.97C442.801 407.79 441.921 409.97 440.951 412.3C439.981 414.63 439.131 416.8 438.391 418.63C438.095 419.533 437.716 420.406 437.261 421.24C437.393 420.294 437.638 419.368 437.991 418.48C438.541 416.82 439.381 414.54 440.401 412.07C441.421 409.6 442.401 407.38 443.151 405.8C443.507 404.918 443.956 404.077 444.491 403.29Z" fill="#263238"/>
<path d="M419.18 292.44C419.18 292.44 405 285 404.69 272.61C404.69 272.513 404.715 272.417 404.764 272.333C404.813 272.249 404.884 272.18 404.969 272.133C405.054 272.086 405.15 272.063 405.247 272.066C405.344 272.069 405.438 272.098 405.52 272.15C407.63 273.61 413.49 278.65 419.18 292.44Z" fill="#1A3764"/>
<path d="M407.641 276.87C408.306 277.55 408.899 278.298 409.411 279.1C410.571 280.69 411.921 282.57 413.411 284.64L417.411 290.16C418.02 290.886 418.562 291.666 419.031 292.49C418.299 291.882 417.644 291.186 417.081 290.42C415.951 289.08 414.471 287.16 412.911 284.99C411.351 282.82 409.981 280.81 409.041 279.34C408.489 278.568 408.02 277.74 407.641 276.87Z" fill="#263238"/>
<path d="M434.45 325.31C434.45 325.31 419.81 318.76 418.78 306.39C418.772 306.293 418.791 306.195 418.834 306.108C418.878 306.021 418.945 305.947 419.027 305.896C419.11 305.844 419.206 305.816 419.303 305.815C419.401 305.814 419.496 305.84 419.58 305.89C421.77 307.22 427.92 311.88 434.45 325.31Z" fill="#1A3764"/>
<path d="M422 310.47C422.705 311.105 423.342 311.812 423.9 312.58L428.24 317.87L432.59 323.14C433.242 323.829 433.831 324.576 434.35 325.37C433.583 324.803 432.885 324.149 432.27 323.42C431.07 322.14 429.47 320.32 427.78 318.25C426.09 316.18 424.61 314.25 423.57 312.84C422.961 312.11 422.434 311.315 422 310.47Z" fill="#263238"/>
<path d="M426 362C426 362 416 349.5 420.67 338C420.707 337.91 420.768 337.832 420.847 337.774C420.925 337.716 421.018 337.681 421.116 337.673C421.213 337.665 421.31 337.683 421.398 337.727C421.485 337.771 421.558 337.837 421.61 337.92C423 340.09 426.33 347.05 426 362Z" fill="#1A3764"/>
<path d="M421.68 343.08C422.022 343.968 422.271 344.89 422.42 345.83C422.84 347.75 423.33 350.01 423.87 352.51C424.41 355.01 424.92 357.26 425.34 359.18C425.608 360.091 425.792 361.025 425.89 361.97C425.451 361.12 425.116 360.22 424.89 359.29C424.4 357.6 423.8 355.29 423.24 352.63C422.68 349.97 422.24 347.63 421.96 345.91C421.764 344.98 421.67 344.031 421.68 343.08Z" fill="#263238"/>
<path d="M436.001 405.11C436.001 405.11 421.471 398.32 420.651 385.94C420.641 385.841 420.66 385.742 420.704 385.653C420.748 385.564 420.816 385.489 420.9 385.437C420.984 385.385 421.082 385.358 421.181 385.358C421.28 385.359 421.377 385.387 421.461 385.44C423.611 386.81 429.681 391.58 436.001 405.11Z" fill="#1A3764"/>
<path d="M423.771 390.06C424.458 390.716 425.081 391.436 425.631 392.21L429.881 397.56L434.141 402.91C434.781 403.61 435.357 404.366 435.861 405.17C435.116 404.586 434.444 403.915 433.861 403.17C432.671 401.87 431.111 400.02 429.451 397.92C427.791 395.82 426.351 393.87 425.331 392.44C424.72 391.71 424.196 390.911 423.771 390.06Z" fill="#263238"/>
<path d="M464.91 342.07C464.91 342.07 464.91 342.19 464.91 342.42C464.91 342.65 464.91 343.03 464.91 343.42C464.91 344.42 464.81 345.69 464.74 347.31C464.56 350.73 464.29 355.5 463.98 361.2C462.98 367 459.98 373.43 455.98 379.68C453.07 384.28 449.98 388.46 447.38 392.35C445.007 395.764 442.876 399.339 441 403.05C439.759 405.557 438.755 408.175 438 410.87C437.75 411.82 437.55 412.57 437.44 413.08C437.393 413.345 437.323 413.606 437.23 413.86C437.234 413.59 437.268 413.322 437.33 413.06C437.4 412.54 437.55 411.78 437.78 410.81C438.453 408.069 439.408 405.404 440.63 402.86C442.489 399.12 444.618 395.52 447 392.09C449.62 388.17 452.65 383.98 455.55 379.41C459.5 373.19 462.44 366.86 463.55 361.15C463.95 355.46 464.28 350.7 464.55 347.28C464.68 345.66 464.79 344.37 464.87 343.4C464.87 343 464.94 342.66 464.97 342.4C464.937 342.293 464.916 342.182 464.91 342.07Z" fill="#263238"/>
<path d="M456.261 378.53C456.261 378.53 462.41 363.73 454.68 354.02C454.621 353.942 454.54 353.882 454.448 353.848C454.356 353.813 454.256 353.804 454.16 353.823C454.064 353.842 453.974 353.887 453.902 353.953C453.829 354.02 453.777 354.105 453.75 354.2C453.06 356.68 451.791 364.29 456.261 378.53Z" fill="#1A3764"/>
<path d="M455.141 359.19C455.406 360.103 455.57 361.041 455.631 361.99C455.851 363.73 456.091 366.14 456.281 368.81C456.471 371.48 456.561 373.9 456.561 375.66C456.621 376.61 456.564 377.564 456.391 378.5C456.218 377.567 456.134 376.619 456.141 375.67C456.011 373.67 455.851 371.4 455.681 368.85C455.511 366.3 455.351 363.99 455.211 362.03C455.094 361.088 455.071 360.137 455.141 359.19Z" fill="#263238"/>
<g opacity="0.3">
<path d="M456.261 378.53C456.261 378.53 462.41 363.73 454.68 354.02C454.621 353.942 454.54 353.882 454.448 353.848C454.356 353.813 454.256 353.804 454.16 353.823C454.064 353.842 453.974 353.887 453.902 353.953C453.829 354.02 453.777 354.105 453.75 354.2C453.06 356.68 451.791 364.29 456.261 378.53Z" fill="black"/>
</g>
<path d="M437.21 414.22C437.21 414.22 442.14 398.96 433.64 389.92C433.574 389.848 433.49 389.795 433.396 389.768C433.302 389.741 433.203 389.741 433.109 389.766C433.014 389.792 432.929 389.844 432.863 389.915C432.796 389.986 432.75 390.074 432.73 390.17C432.25 392.69 431.6 400.39 437.21 414.22Z" fill="#1A3764"/>
<path d="M434.521 395C434.867 395.889 435.109 396.815 435.241 397.76C435.601 399.47 436.031 401.86 436.441 404.5C436.851 407.14 437.131 409.55 437.281 411.3C437.41 412.245 437.427 413.201 437.331 414.15C437.093 413.232 436.932 412.295 436.851 411.35C436.561 409.4 436.221 407.12 435.851 404.59C435.481 402.06 435.121 399.78 434.851 397.83C434.648 396.9 434.537 395.952 434.521 395Z" fill="#263238"/>
<g opacity="0.3">
<path d="M437.21 414.22C437.21 414.22 442.14 398.96 433.64 389.92C433.574 389.848 433.49 389.795 433.396 389.768C433.302 389.741 433.203 389.741 433.109 389.766C433.014 389.792 432.929 389.844 432.863 389.915C432.796 389.986 432.75 390.074 432.73 390.17C432.25 392.69 431.6 400.39 437.21 414.22Z" fill="black"/>
</g>
<path d="M464.101 360.44C464.101 360.44 477.231 351.24 475.911 338.9C475.9 338.803 475.864 338.711 475.804 338.633C475.745 338.556 475.665 338.496 475.574 338.461C475.484 338.426 475.385 338.416 475.289 338.434C475.193 338.451 475.103 338.495 475.031 338.56C473.121 340.28 468.001 346 464.101 360.44Z" fill="#1A3764"/>
<g opacity="0.3">
<path d="M464.101 360.44C464.101 360.44 477.231 351.24 475.911 338.9C475.9 338.803 475.864 338.711 475.804 338.633C475.745 338.556 475.665 338.496 475.574 338.461C475.484 338.426 475.385 338.416 475.289 338.434C475.193 338.451 475.103 338.495 475.031 338.56C473.121 340.28 468.001 346 464.101 360.44Z" fill="black"/>
</g>
<path d="M473.53 343.51C473.27 344.426 472.904 345.308 472.44 346.14C471.69 347.72 470.6 349.88 469.33 352.24C468.06 354.6 466.84 356.69 465.9 358.17C465.438 359.001 464.877 359.773 464.23 360.47C464.582 359.59 465.017 358.746 465.53 357.95C466.47 356.22 467.58 354.2 468.8 351.95L472.06 345.95C472.47 345.09 472.962 344.273 473.53 343.51Z" fill="#263238"/>
<path d="M442.511 399.09C442.511 399.09 458.351 396.62 462.591 384.96C462.625 384.869 462.634 384.77 462.616 384.675C462.598 384.579 462.554 384.49 462.489 384.418C462.424 384.346 462.34 384.293 462.247 384.265C462.154 384.237 462.055 384.235 461.961 384.26C459.491 385 452.331 387.85 442.511 399.09Z" fill="#1A3764"/>
<g opacity="0.3">
<path d="M442.511 399.09C442.511 399.09 458.351 396.62 462.591 384.96C462.625 384.869 462.634 384.77 462.616 384.675C462.598 384.579 462.554 384.49 462.489 384.418C462.424 384.346 462.34 384.293 462.247 384.265C462.154 384.237 462.055 384.235 461.961 384.26C459.491 385 452.331 387.85 442.511 399.09Z" fill="black"/>
</g>
<path d="M458.431 388.05C457.789 388.75 457.071 389.378 456.291 389.92C454.921 391.02 452.991 392.48 450.821 394.04C448.651 395.6 446.621 396.93 445.121 397.85C444.339 398.395 443.492 398.842 442.601 399.18C443.31 398.547 444.077 397.981 444.891 397.49L450.471 393.55L456.041 389.55C456.782 388.966 457.583 388.464 458.431 388.05Z" fill="#263238"/>
<path d="M427.391 428.25L422.771 459.35H451.571L447.841 428.25H427.391Z" fill="#455A64"/>
<path d="M449.001 437.88C449.001 438.05 443.801 438.18 437.391 438.18C430.981 438.18 425.771 438.05 425.771 437.88C429.636 437.584 433.515 437.483 437.391 437.58C441.263 437.484 445.138 437.584 449.001 437.88Z" fill="#263238"/>
<path d="M449.561 440.36C449.561 440.53 444.191 440.66 437.561 440.66C430.931 440.66 425.561 440.53 425.561 440.36C425.561 440.19 430.931 440.06 437.561 440.06C444.191 440.06 449.561 440.19 449.561 440.36Z" fill="#263238"/>
<path d="M97.4203 119.47L79.8603 115.15H79.9903C75.4562 118.034 70.2132 119.609 64.8403 119.7C61.6595 119.714 58.4944 119.253 55.4503 118.33C50.0985 116.611 45.3504 113.397 41.7673 109.066C38.1842 104.735 35.9159 99.4689 35.2303 93.8899C34.6919 89.6705 35.0883 85.3843 36.3913 81.3352C37.6943 77.2862 39.8722 73.5733 42.7703 70.4599C44.2938 68.7865 46.0013 67.2903 47.8603 65.9999C48.8003 65.4099 49.7403 64.7999 50.7203 64.2899L52.2103 63.5699L52.9503 63.2099L53.7303 62.9299C57.7458 61.3734 62.0532 60.7146 66.3503 60.9999C72.1093 61.3738 77.6287 63.4441 82.2129 66.9499C86.7971 70.4556 90.2409 75.24 92.1103 80.6999C93.1489 83.7541 93.6958 86.954 93.7303 90.1799C93.7554 95.5409 92.2984 100.805 89.5203 105.39V105.23C94.4003 114.04 96.8603 118.49 97.4103 119.47C96.8403 118.47 94.2903 114.1 89.2403 105.38V105.3V105.22C91.9187 100.679 93.3021 95.4913 93.2403 90.2199C93.1939 87.0456 92.6403 83.8993 91.6003 80.8999C89.7512 75.5516 86.3654 70.8677 81.8669 67.4347C77.3683 64.0016 71.957 61.972 66.3103 61.5999C62.0979 61.3253 57.8762 61.9737 53.9403 63.4999L53.1803 63.7699L52.4503 64.1299L50.9903 64.8299C49.9903 65.3399 49.1103 65.9299 48.1803 66.5099C46.3572 67.7657 44.6801 69.2214 43.1803 70.8499C40.3351 73.9063 38.1966 77.5508 36.9161 81.5253C35.6356 85.4999 35.2444 89.7074 35.7703 93.8499C36.6974 101.439 40.5911 108.353 46.6003 113.08C49.2869 115.209 52.3358 116.835 55.6003 117.88C58.5898 118.804 61.7013 119.273 64.8303 119.27C70.1388 119.213 75.3289 117.694 79.8303 114.88H79.8903H80.0003L97.4203 119.47Z" fill="#263238"/>
<path d="M62.0007 77.2998L62.8907 91.9998C62.9262 92.5796 63.1726 93.1264 63.5833 93.5372C63.9941 93.948 64.5409 94.1943 65.1207 94.2298C65.7308 94.2643 66.3309 94.0638 66.7977 93.6695C67.2646 93.2752 67.5626 92.7171 67.6307 92.1098L69.2607 77.3798C69.2891 77.1163 69.2611 76.8497 69.1787 76.5978C69.0962 76.3459 68.9611 76.1144 68.7824 75.9187C68.6037 75.7229 68.3854 75.5674 68.142 75.4625C67.8986 75.3575 67.6357 75.3055 67.3707 75.3098H63.8007C63.5502 75.3173 63.3038 75.3753 63.0763 75.4804C62.8487 75.5855 62.6448 75.7354 62.4767 75.9213C62.3086 76.1071 62.1797 76.3251 62.0979 76.562C62.0161 76.7989 61.9831 77.0498 62.0007 77.2998Z" fill="#1A3764"/>
<path d="M69.0008 102.44C68.777 103.111 68.3592 103.701 67.8002 104.136C67.2411 104.57 66.5659 104.828 65.8599 104.879C65.1539 104.929 64.4488 104.77 63.8336 104.419C63.2185 104.069 62.7209 103.545 62.4038 102.912C62.0867 102.279 61.9643 101.566 62.052 100.864C62.1398 100.162 62.4338 99.5012 62.8969 98.9659C63.36 98.4306 63.9713 98.0445 64.6537 97.8566C65.3361 97.6686 66.0589 97.6871 66.7308 97.9098C67.1775 98.0579 67.5906 98.2926 67.9466 98.6005C68.3025 98.9084 68.5942 99.2834 68.805 99.7042C69.0159 100.125 69.1417 100.583 69.1753 101.053C69.2089 101.522 69.1496 101.993 69.0008 102.44Z" fill="#1A3764"/>
<path d="M321.391 289.612C322.095 289.248 322.631 288.626 322.886 287.877C323.142 287.127 323.098 286.308 322.764 285.59L310.431 259.1C310.257 258.725 310.008 258.389 309.7 258.112C309.392 257.836 309.032 257.624 308.64 257.491C308.248 257.357 307.834 257.304 307.421 257.335C307.008 257.365 306.606 257.479 306.238 257.669L304.077 258.787C303.71 258.977 303.384 259.24 303.121 259.559C302.857 259.878 302.661 260.247 302.544 260.644C302.426 261.041 302.391 261.458 302.439 261.869C302.486 262.28 302.617 262.677 302.822 263.036L317.315 288.408C317.708 289.096 318.352 289.605 319.111 289.829C319.871 290.054 320.688 289.976 321.391 289.612V289.612Z" fill="#1A3764"/>
<path d="M335.596 286.51C336.112 286.456 336.588 286.203 336.922 285.806C337.257 285.409 337.426 284.898 337.392 284.38L336.166 265.26C336.149 264.989 336.077 264.725 335.955 264.482C335.832 264.24 335.662 264.025 335.455 263.85C335.247 263.675 335.007 263.544 334.747 263.464C334.488 263.385 334.215 263.359 333.945 263.387L332.359 263.556C332.089 263.584 331.828 263.667 331.59 263.799C331.353 263.932 331.146 264.11 330.98 264.325C330.813 264.539 330.692 264.785 330.624 265.048C330.555 265.31 330.54 265.584 330.58 265.853L333.392 284.804C333.468 285.318 333.74 285.782 334.151 286.1C334.562 286.418 335.079 286.565 335.596 286.51Z" fill="#1A3764"/>
<path d="M346.875 293.202C348.328 293.976 350.3 293.152 351.348 291.333L369.936 259.037C371.046 257.107 370.689 254.816 369.148 253.995L367.001 252.85C365.461 252.029 363.358 253.01 362.376 255.008L345.934 288.447C345.008 290.331 345.423 292.428 346.875 293.202Z" fill="#1A3764"/>
<path d="M216.446 287.228L250.525 293.547C251.095 293.666 251.615 293.955 252.016 294.377C252.417 294.799 252.68 295.333 252.77 295.908L255.939 315.89L268.903 400.461C269.043 401.355 269.496 402.17 270.182 402.76C270.868 403.35 271.742 403.677 272.647 403.681L381.668 403.96C381.969 403.961 382.265 404.033 382.532 404.171C382.8 404.308 383.03 404.507 383.206 404.752C383.381 404.996 383.496 405.278 383.541 405.576C383.586 405.873 383.56 406.177 383.464 406.462L382.097 410.553C381.908 411.122 381.544 411.616 381.057 411.966C380.57 412.316 379.985 412.504 379.385 412.502L264.038 412.205C262.753 412.202 261.489 412.539 260.375 413.181C259.261 413.824 258.337 414.749 257.696 415.864L257.608 416.016C255.089 420.721 258.693 426.409 264.021 426.499L390.518 426.777C391.166 426.779 391.796 426.56 392.303 426.155C392.81 425.751 393.164 425.186 393.306 424.553L415.894 323.642C416.012 323.122 416.019 322.584 415.915 322.061C415.811 321.538 415.598 321.043 415.29 320.608C414.982 320.173 414.586 319.807 414.128 319.535C413.669 319.263 413.159 319.09 412.63 319.028L266.574 301.661L263.388 281.223C263.292 280.644 263.021 280.108 262.611 279.687C262.202 279.267 261.673 278.982 261.096 278.872L219.374 271.1C219.005 271.03 218.625 271.034 218.256 271.112C217.888 271.19 217.539 271.341 217.229 271.554C216.92 271.768 216.656 272.041 216.452 272.358C216.249 272.675 216.11 273.028 216.044 273.399L214.165 283.917C214.031 284.659 214.196 285.423 214.623 286.043C215.05 286.663 215.705 287.089 216.446 287.228V287.228Z" fill="#1A3764"/>
<path d="M389.109 387.834L376.762 387.802L383.559 329.885L401.597 332.781L389.109 387.834Z" fill="#1A3764" fill-opacity="0.15"/>
<path d="M292.233 387.585L279.886 387.553L270.57 317.247L283.864 318.231L292.233 387.585Z" fill="#1A3764" fill-opacity="0.15"/>
<path d="M339.72 387.707L328.323 387.677L324.691 323.085L342.731 325.031L339.72 387.707Z" fill="#EBEBEB"/>
<path d="M373.112 328.908L355.072 326.962L352.066 387.738L364.413 387.77L373.112 328.908Z" fill="#1A3764" fill-opacity="0.15"/>
<path d="M295.259 319.21L313.299 321.156L315.027 387.643L303.63 387.613L295.259 319.21Z" fill="#1A3764" fill-opacity="0.15"/>
<path d="M364.322 457.4C357.082 455.069 353.103 447.31 355.435 440.07C357.766 432.831 365.525 428.852 372.765 431.183C380.004 433.514 383.983 441.273 381.652 448.513C379.32 455.752 371.562 459.731 364.322 457.4Z" fill="#1A3764"/>
<path d="M274.096 457.168C266.856 454.836 262.877 447.078 265.208 439.838C267.54 432.598 275.298 428.619 282.538 430.951C289.778 433.282 293.757 441.041 291.425 448.28C289.094 455.52 281.335 459.499 274.096 457.168Z" fill="#1A3764"/>
<path d="M215.715 269.323L251.64 276.12C251.84 276.157 251.97 276.349 251.933 276.549L248.642 293.942C248.604 294.141 248.412 294.272 248.213 294.234L212.287 287.437C212.088 287.4 211.957 287.208 211.995 287.008L215.286 269.615C215.324 269.416 215.516 269.285 215.715 269.323Z" fill="#1A3764"/>
</svg>
